<svg width="120" height="95" viewBox="0 0 120 95" fill="none" xmlns="http://www.w3.org/2000/svg">
<g clip-path="url(#clip0_1664_9860)">
<path d="M100.429 90.958C100.898 90.9872 101.157 90.4041 100.802 90.0645L100.767 89.9241C100.771 89.9129 100.776 89.9017 100.781 89.8905C101.061 89.2227 101.831 88.9066 102.5 89.1832C104.616 90.0578 102.382 92.0677 102.55 93.4276C102.609 93.8971 104.448 93.9229 104.344 94.3835C105.322 92.2458 105.836 89.9117 105.835 87.5645C105.835 86.9748 105.802 86.3851 105.736 85.7968C105.682 85.3157 105.607 84.8375 105.51 84.3637C104.985 81.8025 103.85 79.3634 102.214 77.3263C101.427 76.8967 101.907 76.2247 101.511 75.4195C101.368 75.1291 100.098 75.1225 100.046 74.8042C100.102 74.8116 100.923 73.9591 100.652 73.5376C100.474 73.2603 100.529 72.907 100.758 72.6699C100.781 72.6467 100.802 72.6222 100.822 72.5958C101.499 71.6772 102.432 71.8372 102.919 73.085C103.96 73.6099 103.971 74.4811 103.332 75.3191C102.926 75.8522 102.871 76.5735 102.515 77.1443C102.551 77.1912 102.589 77.2367 102.626 77.2836C103.299 78.146 103.881 79.0729 104.372 80.0468C104.233 78.9643 104.437 77.6601 104.785 76.8193C105.185 75.8544 105.937 75.0427 106.595 74.2081C107.382 73.2113 108.982 73.6637 109.121 74.9257C109.123 74.9378 109.124 74.9499 109.125 74.9621C109.028 75.0171 108.933 75.0755 108.839 75.1372C108.308 75.4888 108.492 76.3124 109.122 76.4092L109.136 76.4114C109.101 76.762 107.857 77.8666 107.769 78.2084C108.611 81.4582 107.981 81.8873 105.392 81.9417L105.256 82.1352C105.501 82.8406 105.699 83.563 105.847 84.2946C105.987 84.9738 106.084 85.6603 106.138 86.3497C106.206 87.2196 106.2 88.094 106.127 88.9624L106.132 88.9316C106.318 87.9751 106.837 87.0815 107.591 86.4622C108.713 85.5391 110.3 85.1987 111.512 84.4566C112.095 84.0994 112.843 84.5605 112.741 85.2369L112.736 85.2692C112.556 85.3426 112.38 85.4278 112.21 85.5232C112.112 85.5783 112.017 85.6367 111.923 85.6985C111.392 86.0502 111.576 86.8739 112.206 86.9704L112.22 86.9726C112.231 86.974 112.24 86.9755 112.25 86.977C111.941 87.712 108.994 88.7489 108.454 89.3373C107.929 92.1759 108.187 92.0915 105.772 91.2657H105.77C105.507 92.4159 105.121 93.5397 104.626 94.6108L100.533 94.6122C100.518 94.5667 100.505 94.5198 100.492 94.4743C100.87 94.4977 101.252 94.4755 101.624 94.4065C101.32 94.0339 101.017 93.6585 100.713 93.286C100.705 93.2787 100.7 93.2713 100.694 93.264L100.689 93.2583L100.268 91.8712C100.301 91.5635 100.355 91.2583 100.429 90.958L100.429 90.9579V90.9579V90.958Z" fill="#F2F2F2"/>
<path d="M57.1776 94.5798L20.9609 94.5923C19.1414 94.5929 17.5116 93.6527 16.6013 92.0774C16.1462 91.2896 15.9185 90.4254 15.9182 89.561C15.9179 88.6968 16.1451 87.8323 16.5996 87.0443L34.6965 54.1C35.6058 52.5239 37.2349 51.5827 39.0544 51.582C40.8738 51.5814 42.5036 52.5215 43.414 54.097L61.536 87.0329C61.9899 87.8186 62.217 88.6818 62.2171 89.5456C62.2171 90.4094 61.99 91.2737 61.5354 92.0618C60.6262 93.6378 58.997 94.5792 57.1776 94.5798H57.1776H57.1776ZM16.3735 89.5604C16.3734 90.3472 20.3698 88.6519 20.7838 89.3685C21.612 90.8017 19.3054 94.1386 20.9607 94.1381C20.9607 94.1381 60.3148 93.2686 61.1419 91.8348C61.5555 91.1179 61.7621 90.3315 61.7618 89.5452C61.7616 88.7589 61.5544 87.9727 61.1402 87.2561L43.0182 54.3201C42.1924 52.891 40.7098 52.0357 39.0545 52.0363C37.4 52.0369 16.3735 88.7736 16.3735 89.5604H16.3735Z" fill="#3F3D56"/>
<path d="M57.5797 94.1254C57.1258 95.034 78.3876 94.7548 78.6389 94.7547C78.6389 94.7547 84.615 94.6227 84.7406 94.4049C84.8034 94.2961 84.8348 94.1766 84.8348 94.0572C84.8347 93.9378 84.8033 93.8184 84.7404 93.7096L81.9885 88.7081C81.8631 88.4911 81.6379 88.3612 81.3866 88.3613C81.3761 88.3613 81.3607 88.3706 81.3407 88.3884C77.6697 91.669 73.1454 93.8377 68.2226 93.9109C62.9881 93.9888 57.6086 94.0676 57.5797 94.1254H57.5797Z" fill="#3F3D56"/>
<path d="M1.70006e-08 94.7294C5.22559e-05 94.8793 0.120476 94.9996 0.270386 94.9996L118.896 94.9585C119.046 94.9585 119.166 94.8381 119.166 94.6882C119.166 94.5383 119.045 94.4179 118.896 94.418L0.2702 94.459C0.12029 94.4591 -5.22219e-05 94.5795 1.70006e-08 94.7294H1.70006e-08Z" fill="#CCCCCC"/>
<path d="M91.7309 93.4179L89.6766 93.4184L88.6967 85.495L91.7286 85.4941L91.7309 93.4179Z" fill="#A0616A"/>
<path d="M84.6927 93.3741C84.6287 93.4818 84.5951 93.8295 84.5952 93.9548C84.5953 94.3399 84.9075 94.6519 85.2926 94.6518L91.6545 94.6496C91.9172 94.6495 92.1301 94.4365 92.13 94.1738L92.1299 93.9089C92.1299 93.9089 92.4444 93.1127 91.7961 92.1318C91.7961 92.1318 90.991 92.9003 89.7873 91.6974L89.4322 91.0547L86.8642 92.9342L85.4405 93.1099C85.129 93.1484 84.8528 93.1042 84.6927 93.3741H84.6927Z" fill="#2F2E41"/>
<path d="M83.854 86.6404L81.9081 87.2988L78.4421 80.1066L81.314 79.1348L83.854 86.6404Z" fill="#A0616A"/>
<path d="M77.1724 88.8519C77.1463 88.9744 77.2258 89.3146 77.266 89.4332C77.3894 89.798 77.7852 89.9936 78.15 89.8701L84.176 87.8305C84.4249 87.7463 84.5583 87.4763 84.4741 87.2275L84.3892 86.9766C84.3892 86.9766 84.432 86.1216 83.5037 85.4C83.5037 85.4 82.9872 86.3859 81.4616 85.6319L80.9194 85.1367L79.0886 87.7397L77.7962 88.3621C77.5134 88.4983 77.2376 88.5449 77.1724 88.8519L77.1724 88.8519Z" fill="#2F2E41"/>
<path d="M80.6809 40.6764L76.6963 53.8726L71.9924 65.7425L79.4395 82.6937L82.2008 81.4653L78.8967 65.8935L85.8258 55.327L89.0592 88.3129L91.8208 88.1585L95.566 48.3427L96.1 39.6738L80.6809 40.6764Z" fill="#2F2E41"/>
<path d="M92.7149 11.4434L86.885 12.5194L86.4256 15.1278L82.8974 16.8167L81.0629 35.9958C81.0629 35.9958 77.9957 39.986 80.451 41.2126L96.1001 39.6729C96.1001 39.6729 96.8662 36.836 96.099 36.5669C95.3318 36.2978 95.3294 29.5216 95.3294 29.5216L98.8534 15.5838L93.6362 13.7445L92.7149 11.4434Z" fill="#E6E6E6"/>
<path d="M89.2762 11.394C91.8762 11.394 93.984 9.28631 93.984 6.68628C93.984 4.08625 91.8762 1.97852 89.2762 1.97852C86.6762 1.97852 84.5684 4.08625 84.5684 6.68628C84.5684 9.28631 86.6762 11.394 89.2762 11.394Z" fill="#A0616A"/>
<path d="M92.3938 7.38436C92.0181 7.59003 92.3745 8.57193 92.1397 8.65682C91.8684 8.75494 90.8788 7.62859 90.8666 6.367C90.8629 5.98517 90.9507 5.80182 90.8662 5.3491C90.7557 4.75692 90.4164 4.05846 90.1024 4.077C89.9162 4.08799 89.7344 4.35119 89.7208 4.58608C89.7018 4.91528 90.0216 5.04485 89.9755 5.22217C89.8878 5.55993 88.545 5.79312 88.067 5.22284C87.6922 4.77574 87.9796 3.99075 87.8121 3.95055C87.6886 3.92092 87.556 4.35311 87.0489 4.84148C86.8579 5.02547 86.5738 5.29911 86.4129 5.22341C86.1803 5.11401 86.3493 4.34301 86.2853 4.33279C86.2324 4.32433 86.1992 4.86624 85.904 5.35082C85.5248 5.97338 84.7425 6.45323 84.3774 6.24201C84.1538 6.1126 84.1361 5.75231 84.1227 5.47868C84.0944 4.9022 83.2567 3.57617 83.4734 2.95948C83.9145 1.70431 84.6704 2.58909 85.0122 2.17021C85.475 1.60315 85.8902 1.90803 86.666 1.27898C87.4238 0.664456 87.4304 0.046811 87.9379 0.00616465C88.3949 -0.0304389 88.5575 0.457072 89.0832 0.387479C89.5285 0.328524 89.6254 -0.0495924 89.9737 0.00545829C90.2926 0.0558574 90.3136 0.388957 90.7373 0.514142C91.0078 0.594063 91.0673 0.478386 91.3735 0.513922C92.0107 0.587865 92.4387 1.16823 92.5189 1.27695C92.828 1.69605 92.708 1.87279 93.0282 2.29467C93.3043 2.65847 93.9161 2.50398 94.1461 2.68569C94.8977 3.27942 95.2207 4.37436 95.2272 5.62233C95.2317 6.4952 95.1179 6.93622 94.864 8.03796C94.6711 8.87455 93.7779 9.95566 93.2855 10.4377C93.1533 10.5672 92.7827 10.9299 92.5222 10.8197C92.2753 10.7153 92.2678 10.2456 92.2675 10.1836C92.2664 9.97035 92.3232 9.70646 92.776 9.03831C93.2517 8.33648 93.4407 8.25639 93.4119 8.0202C93.3609 7.6027 92.6932 7.22044 92.3938 7.38436H92.3938Z" fill="#2F2E41"/>
<path d="M75.9723 51.2769C75.8257 52.504 76.34 53.5743 77.1208 53.6675C77.9017 53.7608 78.6535 52.8416 78.8 51.6145C78.8642 51.0774 78.8017 50.5703 78.6457 50.1621L79.2013 44.9548L76.7521 44.7461L76.4643 49.9016C76.2165 50.2616 76.0364 50.7397 75.9723 51.2769H75.9723H75.9723Z" fill="#A0616A"/>
<path d="M83.0123 16.6934C83.0123 16.6934 81.7435 16.7114 80.9033 18.3522C80.4569 19.2242 78.0683 35.5292 78.0683 35.5292L75.868 48.8861L79.6161 48.905L82.5367 36.2557L84.9936 28.9193L83.0123 16.6934L83.0123 16.6934Z" fill="#E6E6E6"/>
<path d="M93.5597 49.3152C93.2008 50.4977 93.5199 51.6415 94.2724 51.8699C95.0249 52.0983 95.9259 51.3248 96.2848 50.1423C96.4419 49.6246 96.4691 49.1144 96.3869 48.6852L97.8448 43.6554L95.4699 43.0215L94.2847 48.0472C93.9778 48.3583 93.7168 48.7975 93.5597 49.3152V49.3152Z" fill="#A0616A"/>
<path d="M96.1685 15.8143C96.1685 15.8143 98.0091 14.4328 99.5441 16.5803C101.079 18.7278 101.699 36.3717 101.699 36.3717L97.4068 47.2666L94.1844 46.1937L97.2484 32.8444L91.8749 22.7201L96.1685 15.8143H96.1685Z" fill="#E6E6E6"/>
<path d="M49.6223 87.3146C58.7792 87.3146 66.2024 79.8914 66.2024 70.7345C66.2024 61.5775 58.7792 54.1543 49.6223 54.1543C40.4653 54.1543 33.0421 61.5775 33.0421 70.7345C33.0421 79.8914 40.4653 87.3146 49.6223 87.3146Z" fill="#44BCC5"/>
<path d="M49.6252 80.8982C50.466 80.8982 51.1476 80.2166 51.1476 79.3759C51.1476 78.5351 50.466 77.8535 49.6252 77.8535C48.7845 77.8535 48.1029 78.5351 48.1029 79.3759C48.1029 80.2166 48.7845 80.8982 49.6252 80.8982Z" fill="white"/>
<path d="M49.6188 60.5712C49.4789 61.5004 49.7295 61.6949 49.7309 65.7009C49.7323 69.7069 50.5635 75.0779 49.6238 75.0782C48.6841 75.0786 48.3404 63.9939 45.0775 63.0128C41.2411 61.8594 50.0715 57.5632 49.6188 60.5712Z" fill="white"/>
<path d="M27.3693 79.1996L25.8713 82.3647C27.6823 81.0661 30.5109 79.9467 32.7618 79.3472C30.6645 78.3341 28.0982 76.7007 26.565 75.0836L27.4266 78.4278C17.3254 76.3704 10.0716 68.6213 10.0685 59.7447L9.70367 59.6191C9.70688 68.891 16.8603 77.099 27.3693 79.1996V79.1996Z" fill="#3F3D56"/>
</g>
<defs>
<clipPath id="clip0_1664_9860">
<rect width="119.166" height="95" fill="white"/>
</clipPath>
</defs>
</svg>
