<svg width="215" height="160" viewBox="0 0 215 160" fill="none" xmlns="http://www.w3.org/2000/svg">
<g clip-path="url(#clip0_2171_9240)">
<path d="M156.317 152.025H152.057L150.03 135.596H156.317V152.025Z" fill="#9E616A"/>
<path d="M158.565 159.405H155.51L154.965 156.521L153.569 159.405H145.467C145.079 159.405 144.701 159.281 144.388 159.051C144.075 158.82 143.844 158.496 143.728 158.126C143.613 157.755 143.619 157.357 143.745 156.99C143.872 156.623 144.113 156.306 144.432 156.085L150.902 151.617V148.701L157.707 149.107L158.565 159.405Z" fill="#2F2E41"/>
<path d="M181.623 146.649L178.204 149.19L166.774 137.216L171.819 133.465L181.623 146.649Z" fill="#9E616A"/>
<path d="M187.83 151.23L185.379 153.052L183.221 151.064L183.821 154.211L177.32 159.045C177.008 159.277 176.631 159.403 176.242 159.405C175.854 159.407 175.475 159.285 175.161 159.057C174.847 158.828 174.615 158.505 174.497 158.135C174.38 157.765 174.384 157.367 174.508 156.999L177.034 149.553L175.294 147.213L180.997 143.479L187.83 151.23Z" fill="#2F2E41"/>
<path d="M161.276 67.2578C161.276 67.2578 169.358 74.2401 165.629 94.1448L161.076 113.648L175.923 138.278L171.189 144.037L151.888 117.378L144.894 100.972L142.932 71.773L161.276 67.2578Z" fill="#2F2E41"/>
<path d="M148.749 105.646L148.263 113.175L149.751 145.255L156.751 144.036L158.088 121.195L148.749 105.646Z" fill="#2F2E41"/>
<path d="M58.9207 155.888L62.7299 155.888L64.5419 141.195L58.9202 141.196L58.9207 155.888Z" fill="#FFB6B6"/>
<path d="M57.949 154.644L59.0211 154.644L63.2071 152.941L65.4506 154.643H65.4509C66.7187 154.644 67.9347 155.147 68.8312 156.044C69.7277 156.94 70.2314 158.156 70.2315 159.424V159.579L57.9492 159.58L57.949 154.644Z" fill="#2F2E41"/>
<path d="M73.6821 153.486L77.3976 154.325L82.4017 140.393L76.9179 139.154L73.6821 153.486Z" fill="#FFB6B6"/>
<path d="M73.0082 152.059L74.0541 152.295L78.5121 151.557L80.3256 153.711L80.3259 153.711C81.5626 153.991 82.6377 154.75 83.3148 155.822C83.9918 156.894 84.2153 158.191 83.9361 159.427L83.9019 159.579L71.9211 156.874L73.0082 152.059Z" fill="#2F2E41"/>
<path d="M54.0962 66.0645C52.3103 71.4508 52.4991 77.2975 54.5255 83.5725L55.3917 118.903C55.3917 118.903 54.1011 142.072 58.2657 150.225H64.3055L67.2959 116.787L67.6714 94.3434L80.6202 113.278L72.3728 149.678L79.8064 150.343L93.1898 110.84L76.6773 72.5162L54.0962 66.0645Z" fill="#2F2E41"/>
<path d="M123.749 50.7235C128.369 46.5605 135.24 44.4673 141.004 46.8016C135.092 50.0843 130.531 55.3525 128.129 61.6741C127.211 64.1155 126.445 66.9264 124.188 68.2334C122.783 69.0467 121.036 69.0865 119.462 68.6939C117.887 68.3012 116.444 67.5142 115.02 66.735L114.615 66.7258C116.433 60.7788 119.129 54.8865 123.749 50.7235Z" fill="#E6E6E6"/>
<path d="M140.972 46.9278C135.867 47.5875 131.1 49.8389 127.347 53.3623C126.526 54.1064 125.827 54.9754 125.277 55.9372C124.77 56.8914 124.529 57.9638 124.577 59.0429C124.602 60.0499 124.744 61.0772 124.524 62.0727C124.404 62.5807 124.178 63.0574 123.86 63.4718C123.543 63.8861 123.141 64.2286 122.682 64.4769C121.554 65.1253 120.26 65.3297 118.988 65.4857C117.576 65.6588 116.106 65.8162 114.883 66.6085C114.735 66.7044 114.595 66.469 114.743 66.3731C116.87 64.9948 119.561 65.4963 121.849 64.5764C122.916 64.1472 123.86 63.3937 124.195 62.2545C124.487 61.2583 124.341 60.1989 124.307 59.1794C124.245 58.1274 124.44 57.0761 124.878 56.1173C125.378 55.1306 126.042 54.2361 126.842 53.4722C128.616 51.7238 130.653 50.2651 132.88 49.1496C135.415 47.8624 138.15 47.0183 140.97 46.6537C141.144 46.6312 141.145 46.9054 140.972 46.9278H140.972Z" fill="white"/>
<path d="M128.489 52.1558C127.983 51.446 127.746 50.5795 127.82 49.7111C127.895 48.8428 128.275 48.0291 128.894 47.4153C129.02 47.2915 129.218 47.481 129.092 47.6049C128.515 48.1753 128.16 48.9334 128.093 49.7421C128.025 50.5509 128.249 51.3571 128.724 52.0153C128.827 52.1585 128.591 52.2982 128.489 52.1558V52.1558Z" fill="white"/>
<path d="M124.498 58.5337C126.252 58.8445 128.059 58.4827 129.558 57.5204C129.707 57.4249 129.847 57.6604 129.699 57.7557C128.136 58.7542 126.255 59.1269 124.43 58.7994C124.257 58.7681 124.325 58.5025 124.498 58.5337V58.5337Z" fill="white"/>
<path d="M135.437 48.2247C135.575 48.5402 135.79 48.8163 136.061 49.0282C136.333 49.2402 136.653 49.3815 136.992 49.4393C137.166 49.4684 137.098 49.7339 136.925 49.705C136.55 49.6394 136.197 49.483 135.897 49.2495C135.596 49.0159 135.357 48.7123 135.201 48.3652C135.184 48.3338 135.179 48.2968 135.188 48.2619C135.197 48.227 135.218 48.1968 135.249 48.1773C135.28 48.1589 135.317 48.1535 135.352 48.1624C135.388 48.1713 135.418 48.1937 135.437 48.2247Z" fill="white"/>
<path d="M147.351 66.8774C147.242 66.8624 147.133 66.8473 147.022 66.8339C145.551 66.6387 144.067 66.5633 142.584 66.6085C142.47 66.6101 142.353 66.6136 142.239 66.6185C138.668 66.7654 135.155 67.574 131.879 69.0032C130.576 69.5731 129.318 70.2414 128.116 71.0021C126.457 72.0529 124.741 73.3242 122.886 73.7527C122.693 73.7996 122.497 73.8345 122.3 73.8572L114.635 67.2204C114.625 67.1966 114.614 67.1744 114.604 67.1505L114.286 66.8995C114.345 66.856 114.407 66.8121 114.466 66.7685C114.501 66.7431 114.537 66.7192 114.571 66.6937C114.594 66.6773 114.618 66.6609 114.638 66.6447C114.646 66.6391 114.654 66.6337 114.66 66.6299C114.68 66.6137 114.7 66.6008 114.719 66.5864C115.067 66.34 115.417 66.0956 115.77 65.8532C115.771 65.8515 115.771 65.8515 115.775 65.8512C118.444 63.9786 121.326 62.4294 124.361 61.2358C124.452 61.2014 124.544 61.1652 124.639 61.1339C126.005 60.6258 127.411 60.2302 128.842 59.9511C129.626 59.8008 130.417 59.6903 131.213 59.62C133.268 59.4423 135.338 59.589 137.348 60.0546C141.353 60.9835 145.018 63.1832 147.188 66.6137C147.243 66.7015 147.297 66.7879 147.351 66.8774Z" fill="#E6E6E6"/>
<path d="M147.25 66.9597C142.777 64.4129 137.615 63.3404 132.497 63.8943C131.393 63.994 130.312 64.2671 129.293 64.7035C128.315 65.1606 127.476 65.8715 126.865 66.7622C126.279 67.5813 125.774 68.4871 124.999 69.1494C124.597 69.4825 124.129 69.7269 123.626 69.8666C123.123 70.0062 122.596 70.038 122.08 69.9598C120.789 69.7983 119.633 69.1826 118.524 68.5412C117.292 67.8291 116.023 67.0698 114.57 66.9663C114.394 66.9537 114.424 66.6813 114.6 66.6938C117.128 66.874 118.975 68.895 121.355 69.5376C122.466 69.8375 123.673 69.8044 124.626 69.0961C125.459 68.4767 125.981 67.5431 126.567 66.7086C127.151 65.8309 127.94 65.1094 128.867 64.6071C129.86 64.1203 130.929 63.806 132.027 63.6778C134.496 63.3497 137.001 63.4118 139.451 63.8618C142.25 64.36 144.942 65.3332 147.413 66.7393C147.566 66.8264 147.402 67.0463 147.25 66.9597L147.25 66.9597Z" fill="white"/>
<path d="M134.135 63.6187C134.158 62.7475 134.491 61.9131 135.073 61.2644C135.655 60.6157 136.449 60.1951 137.312 60.0776C137.487 60.0544 137.531 60.325 137.356 60.3482C136.552 60.4561 135.812 60.848 135.272 61.4532C134.731 62.0583 134.424 62.8368 134.407 63.6482C134.403 63.8246 134.131 63.7941 134.135 63.6187Z" fill="white"/>
<path d="M127.108 66.3075C128.322 67.6119 129.982 68.4109 131.759 68.5453C131.935 68.5585 131.905 68.831 131.729 68.8178C129.881 68.6745 128.154 67.8395 126.894 66.4794C126.774 66.3496 126.989 66.1785 127.108 66.3075Z" fill="white"/>
<path d="M142.049 64.6631C141.97 64.9983 141.975 65.348 142.064 65.6807C142.153 66.0134 142.324 66.3188 142.56 66.5694C142.682 66.6975 142.467 66.8685 142.346 66.7412C142.087 66.4631 141.899 66.1256 141.8 65.7582C141.7 65.3909 141.692 65.0047 141.777 64.6336C141.782 64.598 141.8 64.5656 141.828 64.543C141.856 64.5204 141.892 64.5094 141.928 64.5121C141.964 64.5162 141.997 64.5344 142.019 64.5626C142.042 64.5909 142.053 64.627 142.049 64.6631Z" fill="white"/>
<path d="M12.7232 155.619C12.3633 156.969 11.4179 158.093 10.2765 158.912C10.0903 159.046 9.89928 159.17 9.70573 159.287C9.64617 159.322 9.58661 159.359 9.52458 159.391C9.45758 159.431 9.39058 159.468 9.32358 159.503H3.95622C3.85944 159.307 3.76515 159.108 3.67085 158.912C1.37055 154.078 -0.244865 148.862 0.0305754 143.55C0.139853 141.489 0.572784 139.458 1.31348 137.532C2.78746 133.693 5.47734 130.371 9.17718 128.698C9.26899 128.656 9.36577 128.614 9.46006 128.574C9.43028 128.681 9.40051 128.785 9.37073 128.892C8.9738 130.322 8.69331 131.781 8.532 133.257C8.51711 133.371 8.50471 133.485 8.49478 133.602C8.14225 137.159 8.45529 140.752 9.41788 144.195C9.42036 144.202 9.42283 144.212 9.42532 144.22C9.63625 144.982 9.88109 145.732 10.1598 146.47C10.3782 147.054 10.6139 147.629 10.872 148.195C11.949 150.57 13.3931 153.101 12.7232 155.619Z" fill="#E6E6E6"/>
<path d="M9.52718 128.686C9.47507 128.756 9.42294 128.823 9.37084 128.892C8.28095 130.337 7.35545 131.898 6.61148 133.547C6.57178 133.629 6.53455 133.711 6.5023 133.796C5.48291 136.099 4.82824 138.547 4.56181 141.051C4.55892 141.069 4.55727 141.086 4.55684 141.103C4.49481 141.689 4.45759 142.28 4.4427 142.87C4.38752 143.977 4.50727 145.086 4.79754 146.156C5.06222 147.029 5.52601 147.829 6.15241 148.493C6.21445 148.56 6.27648 148.627 6.34348 148.692C6.39311 148.744 6.4477 148.796 6.49981 148.846C7.00106 149.325 7.54946 149.769 8.02094 150.282C8.23704 150.513 8.43219 150.762 8.60408 151.027C8.87841 151.471 9.05561 151.968 9.12404 152.486C9.19247 153.003 9.15058 153.529 9.00111 154.029C8.66363 155.285 7.8919 156.344 7.1028 157.354C6.70826 157.861 6.3013 158.372 5.94893 158.913C5.81991 159.106 5.70079 159.302 5.59162 159.503H5.27896C5.38318 159.302 5.49733 159.106 5.6214 158.913C6.52712 157.486 7.81499 156.26 8.4825 154.689C8.93412 153.63 9.07061 152.429 8.49987 151.389C8.3326 151.087 8.1302 150.805 7.89688 150.55C7.44278 150.037 6.89934 149.597 6.40553 149.133C6.28146 149.017 6.15987 148.898 6.04324 148.774C5.42492 148.145 4.94778 147.392 4.64371 146.565C4.29936 145.514 4.13656 144.413 4.16231 143.307C4.16231 142.602 4.19953 141.893 4.26901 141.188C4.27646 141.099 4.28638 141.007 4.29631 140.915C4.80377 136.48 6.4891 132.262 9.17731 128.699C9.22694 128.629 9.27905 128.562 9.33116 128.495C9.43784 128.356 9.63388 128.55 9.52718 128.686Z" fill="white"/>
<path d="M4.39647 141.211C3.53697 141.067 2.75677 140.622 2.19521 139.955C1.63365 139.289 1.32729 138.444 1.33084 137.573C1.33132 137.537 1.34557 137.503 1.37059 137.478C1.39561 137.453 1.42946 137.438 1.46499 137.438C1.50053 137.437 1.53497 137.45 1.56108 137.474C1.58718 137.498 1.6029 137.531 1.60493 137.567C1.60012 138.378 1.88558 139.165 2.40977 139.785C2.93397 140.404 3.66237 140.816 4.46352 140.946C4.63758 140.974 4.56954 141.24 4.39647 141.211V141.211Z" fill="white"/>
<path d="M6.08344 148.544C7.54367 147.523 8.56555 145.99 8.94532 144.249C8.9828 144.076 9.24852 144.144 9.21108 144.316C8.81251 146.127 7.74584 147.72 6.22395 148.779C6.07882 148.88 5.9391 148.644 6.08344 148.544L6.08344 148.544Z" fill="white"/>
<path d="M6.52929 133.518C6.85021 133.644 7.19719 133.687 7.53907 133.645C7.88095 133.603 8.20702 133.477 8.48801 133.277C8.63178 133.175 8.77135 133.411 8.62851 133.513C8.31704 133.731 7.95676 133.87 7.57914 133.918C7.20151 133.965 6.81805 133.919 6.46224 133.784C6.42763 133.774 6.3981 133.751 6.37965 133.721C6.36119 133.69 6.3552 133.653 6.36289 133.618C6.37194 133.583 6.3945 133.552 6.42566 133.534C6.45682 133.515 6.49406 133.51 6.52929 133.518Z" fill="white"/>
<path d="M28.143 138.283C28.0561 138.35 27.9668 138.417 27.8799 138.486C26.7018 139.388 25.5989 140.384 24.5821 141.464C24.5027 141.546 24.4233 141.63 24.3464 141.714L24.3439 141.717C21.9329 144.334 20.0266 147.375 18.7209 150.685L18.7135 150.707C18.711 150.715 18.7085 150.72 18.706 150.727C18.1885 152.052 17.7713 153.414 17.4579 154.802C17.1551 156.156 16.907 157.608 16.433 158.913C16.3611 159.114 16.2817 159.313 16.1973 159.504H5.16479C5.20202 159.308 5.24172 159.109 5.28142 158.913C5.84264 156.038 6.71977 153.233 7.89686 150.551C7.93657 150.461 7.97627 150.372 8.02094 150.283C8.6286 148.957 9.34313 147.683 10.1575 146.474C10.1575 146.473 10.1575 146.473 10.1576 146.473C10.1578 146.473 10.1579 146.472 10.1582 146.472C10.1584 146.472 10.1587 146.472 10.159 146.472C10.1593 146.471 10.1596 146.471 10.1599 146.471C10.6071 145.811 11.0875 145.174 11.5992 144.563C12.9263 142.984 14.4939 141.624 16.2444 140.533C16.2544 140.526 16.2668 140.521 16.2767 140.513C19.7606 138.352 23.8898 137.322 27.8377 138.213H27.8402C27.942 138.235 28.0412 138.258 28.143 138.283Z" fill="#E6E6E6"/>
<path d="M28.1305 138.415C28.0461 138.437 27.9618 138.462 27.8799 138.487C26.1408 138.984 24.4622 139.672 22.8748 140.539C22.7954 140.581 22.716 140.626 22.6366 140.67C20.4429 141.895 18.4516 143.451 16.7332 145.283C16.7319 145.285 16.731 145.286 16.7308 145.288C16.7109 145.308 16.6886 145.33 16.6712 145.35C16.2742 145.777 15.892 146.221 15.5297 146.678C14.8211 147.529 14.25 148.486 13.8374 149.514C13.5221 150.371 13.4108 151.289 13.5123 152.197C13.5198 152.288 13.5322 152.378 13.5446 152.47C13.5545 152.542 13.5644 152.613 13.5768 152.688C13.7406 153.683 14.0235 154.681 13.9441 155.695C13.8958 156.215 13.7379 156.719 13.4809 157.174C13.2238 157.629 12.8734 158.024 12.4527 158.333C12.1668 158.554 11.8611 158.749 11.5396 158.914C11.0799 159.151 10.6009 159.348 10.1078 159.504H9.13257C9.26408 159.467 9.39312 159.43 9.52464 159.393C9.99133 159.261 10.4496 159.101 10.8969 158.914C11.1524 158.807 11.401 158.684 11.6413 158.547C12.6388 157.973 13.4701 157.095 13.6438 155.921C13.7952 154.894 13.5024 153.867 13.3287 152.862C13.2989 152.688 13.2716 152.517 13.2567 152.345C13.1382 151.475 13.2102 150.59 13.4677 149.75C13.8247 148.702 14.3585 147.724 15.0458 146.857C15.4711 146.292 15.9249 145.749 16.4057 145.231C16.4652 145.164 16.5273 145.097 16.5918 145.03C18.3463 143.184 20.3721 141.617 22.5994 140.382H22.6018C24.2579 139.461 26.0148 138.733 27.8377 138.214H27.8402C27.9221 138.189 28.0064 138.164 28.0883 138.142C28.2595 138.097 28.2992 138.368 28.1305 138.415Z" fill="white"/>
<path d="M16.4935 145.324C15.8942 144.692 15.5393 143.867 15.4922 142.996C15.4451 142.126 15.7089 141.267 16.2364 140.574C16.3437 140.434 16.5663 140.594 16.4589 140.734C15.9664 141.379 15.7208 142.179 15.7663 142.989C15.8118 143.799 16.1455 144.567 16.7071 145.153C16.829 145.28 16.6147 145.451 16.4935 145.324H16.4935Z" fill="white"/>
<path d="M13.4263 152.194C15.2068 152.259 16.946 151.649 18.2972 150.488C18.431 150.373 18.6027 150.587 18.469 150.702C17.0607 151.907 15.2495 152.538 13.3968 152.467C13.2203 152.46 13.2507 152.187 13.4263 152.194Z" fill="white"/>
<path d="M22.8282 140.467C23.0091 140.76 23.26 141.004 23.5583 141.176C23.8566 141.348 24.193 141.444 24.5373 141.454C24.7139 141.458 24.6832 141.731 24.5078 141.726C24.1275 141.713 23.7561 141.607 23.4261 141.418C23.096 141.228 22.8175 140.961 22.6147 140.639C22.593 140.61 22.5831 140.574 22.587 140.538C22.5909 140.502 22.6082 140.469 22.6355 140.446C22.6639 140.423 22.7001 140.413 22.7362 140.417C22.7723 140.421 22.8053 140.439 22.8282 140.467Z" fill="white"/>
<path d="M113.249 42.961C112.994 43.296 112.669 43.5711 112.296 43.7669C111.924 43.9627 111.513 44.0744 111.093 44.0942C110.672 44.114 110.253 44.0414 109.864 43.8816C109.474 43.7217 109.125 43.4784 108.84 43.1689L99.46 47.2484L100.374 42.0121L109.141 38.9409C109.693 38.4965 110.388 38.27 111.096 38.3042C111.804 38.3383 112.474 38.6309 112.98 39.1265C113.487 39.622 113.794 40.286 113.843 40.9928C113.893 41.6995 113.681 42.3998 113.249 42.961Z" fill="#FFB8B8"/>
<path d="M106.989 44.5953L85.2029 54.2998L85.1562 54.2831L60.3251 45.4346C58.4755 44.4679 57.0654 42.8308 56.3835 40.8584C55.7016 38.886 55.7995 36.7276 56.6571 34.825C57.1325 33.7738 57.8251 32.8352 58.6894 32.071C59.5536 31.3068 60.57 30.7343 61.6714 30.3912C62.7729 30.0481 63.9346 29.9421 65.08 30.0803C66.2253 30.2185 67.3285 30.5977 68.3167 31.193L86.7956 42.3245L104.714 40.0022L106.989 44.5953Z" fill="#E6E6E6"/>
<path d="M214.075 159.705C214.075 159.744 214.068 159.783 214.053 159.819C214.038 159.854 214.016 159.887 213.989 159.915C213.961 159.942 213.929 159.964 213.893 159.978C213.857 159.993 213.819 160.001 213.78 160.001H0.303589C0.225273 160.001 0.150167 159.97 0.0947893 159.914C0.0394114 159.859 0.00830078 159.784 0.00830078 159.705C0.00830078 159.627 0.0394114 159.552 0.0947893 159.497C0.150167 159.441 0.225273 159.41 0.303589 159.41H213.78C213.819 159.41 213.857 159.418 213.893 159.432C213.929 159.447 213.961 159.469 213.989 159.496C214.016 159.524 214.038 159.556 214.053 159.592C214.068 159.628 214.075 159.667 214.075 159.705Z" fill="#CCCCCC"/>
<path d="M77.7545 73.648L55.7922 70.1351C55.2162 69.9506 54.687 69.6437 54.2408 69.2353C53.7946 68.827 53.4421 68.3269 53.2074 67.7695C52.9727 67.2121 52.8614 66.6105 52.8811 66.006C52.9009 65.4015 53.0512 64.8084 53.3218 64.2675L54.3178 62.2753L53.9309 41.3451C53.8843 38.6226 54.5555 35.9358 55.8769 33.5551C57.1984 31.1743 59.1236 29.1836 61.4587 27.7831L63.6004 26.5025L64.6828 23.7539L74.6632 23.9973L74.6923 27.6022L78.2665 33.3017L78.2664 33.3253L78.0421 64.3467L77.057 67.5481L78.5465 71.2717L77.7545 73.648Z" fill="#E6E6E6"/>
<path d="M70.587 20.3357C75.5953 20.3357 79.6552 16.2757 79.6552 11.2674C79.6552 6.2592 75.5953 2.19922 70.587 2.19922C65.5788 2.19922 61.5188 6.2592 61.5188 11.2674C61.5188 16.2757 65.5788 20.3357 70.587 20.3357Z" fill="#FFB8B8"/>
<path d="M61.1442 13.2443C60.8737 12.1049 60.9979 10.5015 61.1508 9.35416C61.5515 6.34633 63.2219 3.48685 65.7596 1.79308C66.2408 1.42761 66.8126 1.20038 67.4134 1.13588C68.0138 1.11082 68.6645 1.43221 68.8488 2.00414C69.0001 1.62666 69.2271 1.28419 69.5158 0.997856C69.8046 0.711523 70.1489 0.487404 70.5277 0.339336C71.2884 0.0478549 72.1067 -0.0623763 72.9175 0.0173801C74.489 0.146921 75.9962 0.699519 77.2791 1.61653C78.5619 2.53354 79.5725 3.78075 80.2037 5.2258C80.446 5.8012 81.1225 3.67584 81.4294 4.2195C81.7114 4.78462 82.2034 5.2169 82.8001 5.42385C83.4014 5.59165 83.6457 8.06916 83.8823 7.49145C84.0659 7.91839 84.1385 8.38485 84.0933 8.8474C84.0481 9.30994 83.8865 9.75352 83.6237 10.1368C83.3609 10.5201 83.0054 10.8307 82.5902 11.0396C82.175 11.2485 81.7138 11.3489 81.2493 11.3315C80.6373 11.3086 80.0521 11.0835 79.4473 10.9866C77.2847 10.6401 74.9907 12.2083 74.5283 14.3491C74.3628 13.73 74.0984 13.1417 73.7453 12.6069C73.566 12.3409 73.3259 12.1216 73.0447 11.9671C72.7636 11.8126 72.4497 11.7275 72.1291 11.7189C71.5138 11.7419 70.9729 12.1442 70.5737 12.6129C70.1745 13.0817 69.8747 13.6286 69.4725 14.0948C68.2924 15.4628 66.6964 18.6531 65.0147 18.4205C63.6876 18.2369 61.5135 14.8001 61.1442 13.2443Z" fill="#2F2E41"/>
<path d="M125.403 53.2362C125.467 52.8228 125.382 52.4002 125.163 52.0435C124.945 51.6868 124.607 51.4189 124.21 51.2874L99.7898 43.1539C99.5557 43.0756 99.3078 43.0471 99.062 43.0703L92.941 43.6492L89.4289 43.9823L82.9477 44.5948C82.5563 44.6323 82.1885 44.7985 81.9018 45.0675C81.6152 45.3365 81.4259 45.693 81.3636 46.0811L78.0729 66.6368C78.0106 67.0378 78.0869 67.448 78.2892 67.7997C78.4916 68.1514 78.8078 68.4236 79.1857 68.5713L103.861 78.0962C103.977 78.1412 104.097 78.1735 104.22 78.1926C104.399 78.2215 104.581 78.2229 104.76 78.1967L120.705 75.8335C121.081 75.779 121.429 75.6048 121.698 75.3366C121.968 75.0685 122.143 74.7207 122.199 74.3448L125.403 53.2362Z" fill="white"/>
<path d="M79.7449 67.1248L104.42 76.6492C104.456 76.6634 104.496 76.668 104.534 76.6625L120.476 74.2996C120.524 74.2931 120.567 74.2714 120.601 74.2377C120.635 74.2041 120.657 74.1603 120.664 74.1131L123.87 53.0042C123.877 52.9527 123.866 52.9002 123.839 52.8558C123.812 52.8114 123.77 52.7777 123.721 52.7607L123.557 52.7051L99.2987 44.6291C99.2877 44.6251 99.2762 44.6224 99.2646 44.6208C99.2458 44.6174 99.2266 44.6164 99.2076 44.6179L84.2781 46.0306L83.0934 46.1418C83.0448 46.1469 82.9992 46.1679 82.9636 46.2014C82.928 46.2349 82.9043 46.2791 82.8962 46.3273L79.6061 66.8822C79.598 66.9324 79.6074 66.9839 79.6327 67.028C79.658 67.0721 79.6976 67.1063 79.7449 67.1248Z" fill="#44BCC5"/>
<path d="M84.2781 46.0306L99.2075 44.6179C99.2266 44.6164 99.2458 44.6174 99.2646 44.6208C99.2762 44.6224 99.2876 44.6251 99.2987 44.6291L123.557 52.7051L117.158 53.3825L114.763 53.6348L107.949 54.3547C107.929 54.3557 107.909 54.3554 107.889 54.354C107.877 54.3503 107.865 54.3467 107.85 54.3428L84.2781 46.0306Z" fill="#2F2E41"/>
<path d="M79.1851 68.5728L103.861 78.0971C103.977 78.1418 104.097 78.1735 104.221 78.1913C104.399 78.2209 104.581 78.2232 104.761 78.1981L120.703 75.8352C121.08 75.7804 121.428 75.606 121.698 75.3376C121.967 75.0693 122.143 74.7214 122.199 74.3454L125.403 53.2363C125.45 52.9251 125.414 52.6069 125.299 52.314C125.283 52.2751 125.266 52.2361 125.248 52.1995C125.121 51.932 124.927 51.7016 124.686 51.5301C124.541 51.4257 124.38 51.344 124.21 51.2877L124.182 51.2775L99.791 43.1538C99.6913 43.122 99.5896 43.0973 99.4865 43.0799C99.3455 43.0599 99.2026 43.0571 99.061 43.0716L92.941 43.6485L89.4291 43.9835L82.9468 44.5955C82.6816 44.6203 82.4255 44.7049 82.1978 44.843C82.1802 44.8515 82.1634 44.8616 82.1476 44.8731C82.1363 44.8805 82.1255 44.8886 82.1153 44.8975C81.9165 45.0332 81.7473 45.208 81.6182 45.4112C81.489 45.6145 81.4026 45.8418 81.3642 46.0795L78.0714 66.6367C78.0092 67.0379 78.0856 67.4484 78.2881 67.8004C78.4905 68.1524 78.807 68.4248 79.1851 68.5728ZM81.8011 46.1512C81.8411 45.9048 81.9504 45.6749 82.1162 45.4883C82.1664 45.4283 82.2226 45.3735 82.2839 45.3249C82.4513 45.1895 82.6492 45.0972 82.8605 45.0559C82.9022 45.0473 82.9444 45.0413 82.9868 45.0381L93.9014 44.007L99.1037 43.5119C99.1389 43.5078 99.1713 43.5084 99.2039 43.5065C99.2826 43.5049 99.3614 43.5108 99.439 43.524C99.5104 43.5333 99.5807 43.55 99.6486 43.574L124.068 51.7078C124.087 51.7147 124.104 51.7213 124.123 51.7281C124.346 51.8107 124.541 51.9526 124.688 52.1384C124.804 52.2807 124.888 52.4458 124.936 52.6231C124.984 52.8004 124.994 52.9857 124.966 53.1671L121.759 74.2784C121.717 74.56 121.586 74.8205 121.385 75.0217C121.183 75.2228 120.922 75.3538 120.641 75.3955L104.696 77.7581C104.468 77.7908 104.235 77.7643 104.02 77.6811L79.3443 68.1592C79.0614 68.0478 78.8249 67.8435 78.6734 67.5799C78.522 67.3163 78.4646 67.009 78.5107 66.7086L81.8011 46.1512Z" fill="#3F3D56"/>
<path d="M82.0622 45.0111C82.0752 44.9737 82.0982 44.9406 82.1287 44.9153C82.1388 44.9072 82.1495 44.8999 82.1607 44.8934C82.171 44.8894 82.1816 44.8829 82.192 44.8789C82.2415 44.859 82.2966 44.8581 82.3468 44.8763L82.8604 45.0575L107.952 53.9086L113.824 53.2882L117.11 52.9416L124.066 52.2052L124.688 52.14L124.808 52.1267C124.861 52.1219 124.913 52.1355 124.956 52.1651C124.999 52.1947 125.03 52.2385 125.045 52.2888C125.048 52.3004 125.05 52.3123 125.051 52.3243C125.056 52.3721 125.046 52.4203 125.021 52.4615C124.997 52.5028 124.959 52.5349 124.915 52.5531C124.895 52.5613 124.874 52.5668 124.853 52.5697L124.007 52.6583L117.158 53.3824L114.763 53.6346L107.949 54.3546C107.929 54.3556 107.909 54.3553 107.889 54.3538C107.877 54.3502 107.865 54.3465 107.85 54.3427L82.2838 45.3264L82.197 45.2957C82.1771 45.2892 82.1587 45.279 82.1426 45.2656C82.1039 45.2372 82.0752 45.1972 82.0608 45.1515C82.0463 45.1057 82.0468 45.0566 82.0622 45.0111Z" fill="#3F3D56"/>
<path d="M104.288 78.2557C104.23 78.2465 104.178 78.2148 104.144 78.1676C104.109 78.1204 104.095 78.0615 104.104 78.0037L107.706 54.0989C107.715 54.0407 107.746 53.9884 107.793 53.9535C107.841 53.9186 107.9 53.9039 107.958 53.9126L107.96 53.9129C108.018 53.9222 108.07 53.9539 108.104 54.0011C108.139 54.0483 108.153 54.1072 108.144 54.165L104.542 78.0698C104.533 78.1279 104.502 78.1802 104.455 78.2151C104.407 78.2501 104.348 78.2648 104.29 78.256L104.288 78.2557Z" fill="#3F3D56"/>
<path d="M113.419 76.7403L111.023 76.9931L113.825 53.2867C113.825 53.2867 117.025 52.7074 117.111 52.9397C117.163 53.0784 113.442 76.5883 113.419 76.7403Z" fill="#3F3D56"/>
<path d="M82.1978 45.2949L82.1333 56.1058L101.272 63.3983L108.145 54.1663L82.1978 45.2949Z" fill="#3F3D56"/>
<path d="M124.688 52.139C124.528 51.9379 124.313 51.7881 124.069 51.7081L99.6499 43.5745C99.5814 43.5514 99.511 43.5343 99.4395 43.5232C99.3616 43.5099 99.2826 43.5039 99.2036 43.5056L99.2432 43.2581L99.4877 43.0811L105.286 38.8828L124.652 44.8177L124.685 51.5304L124.688 52.139Z" fill="#3F3D56"/>
<path d="M83.1732 62.6501C83.2007 62.6528 83.2278 62.6585 83.2541 62.6671L90.7465 65.1279C90.8403 65.1587 90.918 65.2255 90.9626 65.3136C91.0071 65.4017 91.0149 65.5038 90.9841 65.5976C90.9533 65.6915 90.8865 65.7692 90.7984 65.8137C90.7103 65.8583 90.6081 65.8661 90.5143 65.8353L83.0219 63.3745C82.935 63.3459 82.8616 63.2862 82.8158 63.207C82.77 63.1277 82.755 63.0343 82.7737 62.9447C82.7924 62.855 82.8435 62.7754 82.9172 62.7211C82.9909 62.6668 83.082 62.6415 83.1732 62.6501H83.1732Z" fill="white"/>
<path d="M113.403 108C115.047 108 116.381 106.667 116.381 105.023C116.381 103.378 115.047 102.045 113.403 102.045C111.758 102.045 110.425 103.378 110.425 105.023C110.425 106.667 111.758 108 113.403 108Z" fill="#F2F2F2"/>
<path d="M37.4707 118.92C39.1152 118.92 40.4484 117.587 40.4484 115.943C40.4484 114.298 39.1152 112.965 37.4707 112.965C35.8261 112.965 34.4929 114.298 34.4929 115.943C34.4929 117.587 35.8261 118.92 37.4707 118.92Z" fill="#F2F2F2"/>
<path d="M99.5068 20.4066C101.151 20.4066 102.485 19.0735 102.485 17.4289C102.485 15.7843 101.151 14.4512 99.5068 14.4512C97.8622 14.4512 96.5291 15.7843 96.5291 17.4289C96.5291 19.0735 97.8622 20.4066 99.5068 20.4066Z" fill="#F2F2F2"/>
<path d="M104.392 67.0297C104.006 67.1974 103.588 67.2784 103.168 67.267C102.747 67.2557 102.334 67.1522 101.958 66.964C101.581 66.7757 101.251 66.5073 100.989 66.1775C100.728 65.8477 100.542 65.4646 100.445 65.0552L90.2681 64.027L93.6255 59.9062L102.775 61.5144C103.474 61.3965 104.191 61.539 104.792 61.9149C105.392 62.2908 105.834 62.8738 106.033 63.5537C106.233 64.2335 106.176 64.9629 105.873 65.6035C105.571 66.2442 105.044 66.7516 104.392 67.0297Z" fill="#FFB8B8"/>
<path d="M98.1328 65.3939L74.3833 63.2056L74.3507 63.1682L57.0176 43.3076C55.8769 41.56 55.4474 39.4424 55.8171 37.3885C56.1868 35.3345 57.3276 33.4996 59.0061 32.2593C59.9347 31.5749 60.9979 31.0948 62.1255 30.8508C63.253 30.6068 64.4195 30.6044 65.5481 30.8437C66.6767 31.0831 67.7418 31.5587 68.6733 32.2393C69.6048 32.9199 70.3816 33.7901 70.9526 34.7926L81.6284 53.5386L98.3944 60.2749L98.1328 65.3939Z" fill="#E6E6E6"/>
<path d="M157.743 27.2013C157.153 22.8752 156.413 18.2305 153.362 15.1075C152.394 14.1166 151.235 13.332 149.956 12.8011C148.676 12.2701 147.302 12.0038 145.917 12.0181C144.532 12.0325 143.164 12.3272 141.895 12.8845C140.627 13.4418 139.485 14.2502 138.537 15.261C136.316 17.6305 135.335 20.9576 135.245 24.2041C135.156 27.4506 135.879 30.661 136.681 33.8081C140.925 33.8929 145.139 33.0636 149.035 31.3765C150.009 30.9536 150.968 30.4755 151.997 30.2136C153.026 29.9516 153.76 30.6108 154.717 31.0705L155.243 30.0642C155.673 30.8648 157.005 30.6275 157.488 29.8576C157.972 29.0878 157.866 28.1019 157.743 27.2013Z" fill="#2F2E41"/>
<path d="M140.917 51.3477L123.578 51.7185C123.312 51.2582 122.917 50.8852 122.443 50.645C121.969 50.4047 121.435 50.3074 120.906 50.3651C120.377 50.4228 119.877 50.6328 119.465 50.9697C119.054 51.3066 118.749 51.7558 118.589 52.2627C118.428 52.7696 118.418 53.3122 118.56 53.8247C118.702 54.3371 118.99 54.7972 119.389 55.149C119.787 55.5008 120.28 55.7292 120.806 55.8062C121.332 55.8833 121.869 55.8057 122.352 55.5831C124.652 55.7138 142.643 58.2673 143.717 56.6217C144.806 54.9514 150.621 49.0567 150.621 49.0567L146.151 42.6934L140.917 51.3477Z" fill="#9E616A"/>
<path d="M145.142 31.4807C149.642 31.4807 153.289 27.8334 153.289 23.3341C153.289 18.8349 149.642 15.1875 145.142 15.1875C140.643 15.1875 136.996 18.8349 136.996 23.3341C136.996 27.8334 140.643 31.4807 145.142 31.4807Z" fill="#9E616A"/>
<path d="M158.19 39.0095C157.23 37.0988 156.764 34.7384 154.717 34.119C153.335 33.7007 147.745 34.3276 146.486 35.0336C144.39 36.2081 146.289 38.409 145.053 40.4685C143.709 42.7075 140.057 47.2006 138.713 49.4395C137.79 50.9787 140.901 55.4966 140.402 57.2209C139.902 58.9451 139.878 60.8803 140.729 62.461C141.491 63.8757 140.389 65.1273 141.155 66.5397C141.951 68.0086 142.929 73.5009 142.188 74.9984L141.691 76.4873C146.616 76.7767 150.757 70.8931 155.651 70.2733C156.867 70.1194 158.129 69.9183 159.131 69.2126C160.607 68.1733 161.19 66.2872 161.554 64.5195C163.309 55.879 162.125 46.8998 158.19 39.0095Z" fill="#3F3D56"/>
<path d="M165.574 59.1833C164.888 57.3109 163.646 49.1244 163.646 49.1244L155.873 48.8965L159.674 58.2694L149.304 72.7865C149.304 72.7865 149.323 72.8184 149.358 72.8753C148.812 72.7878 148.254 72.867 147.754 73.1024C147.255 73.3378 146.838 73.7185 146.558 74.1947C146.279 74.6709 146.149 75.2204 146.187 75.7713C146.225 76.3222 146.428 76.8488 146.77 77.2823C147.112 77.7157 147.577 78.0358 148.105 78.2006C148.632 78.3655 149.196 78.3674 149.724 78.2061C150.252 78.0448 150.719 77.7279 151.064 77.2967C151.409 76.8656 151.616 76.3404 151.658 75.7897C151.696 75.8116 151.741 75.8195 151.784 75.8121C151.827 75.8046 151.867 75.7823 151.896 75.7489C153.049 74.3009 166.26 61.0558 165.574 59.1833Z" fill="#9E616A"/>
<path d="M166.364 54.0142C165.651 51.003 164.932 47.9755 163.729 45.1242C162.527 42.273 160.805 39.58 158.383 37.6537C157.608 37.0379 156.743 36.4943 155.772 36.3029C154.801 36.1114 153.708 36.3257 153.026 37.0427C151.935 38.19 152.263 40.0316 152.663 41.5633C153.843 46.0797 155.023 50.596 156.203 55.1123C159.609 54.7512 163.016 54.3901 166.423 54.0289L166.364 54.0142Z" fill="#3F3D56"/>
<path d="M155.125 24.465C154.825 22.4942 154.511 20.507 153.807 18.6513C153.102 16.7956 151.966 15.0576 150.336 14.0063C147.755 12.342 144.415 12.663 141.522 13.6204C139.284 14.3608 137.1 15.4861 135.523 17.2952C133.945 19.1044 133.059 21.6858 133.645 24.0514C136.732 23.3222 139.818 22.5931 142.903 21.864L142.566 22.1027C143.579 22.608 144.464 23.3375 145.153 24.2358C145.842 25.1341 146.318 26.1776 146.544 27.2871C146.764 28.4102 146.733 29.5682 146.451 30.6775C146.169 31.7867 145.644 32.8195 144.914 33.7011C147.019 32.9545 149.124 32.2079 151.228 31.4613C152.528 31.0004 153.918 30.4694 154.688 29.2874C155.581 27.9169 155.374 26.1005 155.125 24.465Z" fill="#2F2E41"/>
</g>
<defs>
<clipPath id="clip0_2171_9240">
<rect width="214.075" height="160" fill="white"/>
</clipPath>
</defs>
</svg>
