<svg width="305" height="160" viewBox="0 0 305 160" fill="none" xmlns="http://www.w3.org/2000/svg">
<g clip-path="url(#clip0_5151_18444)">
<path d="M304.061 116.627C302.465 126.773 297.52 136.62 289.359 142.851C281.327 148.988 271.037 151.169 261.104 153.043C249.19 155.294 237.244 157.352 225.264 159.216C223.566 159.486 221.867 159.748 220.166 160H150.394C150.323 159.906 150.248 159.808 150.178 159.71C150.064 159.545 149.95 159.381 149.841 159.216C149.778 159.122 149.715 159.024 149.652 158.926H193.417C194.659 158.925 195.85 158.431 196.728 157.553C197.607 156.675 198.101 155.485 198.104 154.243V95.8274C198.386 94.9411 198.649 94.0509 198.888 93.149C200.004 88.949 200.73 84.6549 201.056 80.3215C201.292 77.3018 201.362 74.2822 201.311 71.2587C201.166 62.9488 200.08 54.639 198.9 46.388C198.813 45.7802 198.723 45.1684 198.637 44.5605C197.805 38.8272 197.049 32.588 199.939 27.5644C203.245 21.8154 210.582 19.4193 217.19 20.0075C229.076 21.0703 239.088 30.1723 244.292 40.9135C249.492 51.6508 250.657 63.8626 251.131 75.7842C251.382 82.1058 251.355 88.7097 250.472 95.0509C253.453 88.2352 256.436 81.4195 259.421 74.6038C261.014 70.9685 262.688 67.2155 265.637 64.5567C271.802 58.992 281.998 60.1135 288.582 65.1802C295.163 70.2508 298.771 78.2626 301.171 86.2117C304.143 96.0431 305.661 106.482 304.061 116.627Z" fill="#F2F2F2"/>
<path d="M277.765 61.5244C282.076 69.159 284.053 77.9135 284.006 86.6498C283.939 95.3115 282.023 103.859 278.386 111.72C275.096 118.819 270.512 125.242 264.869 130.661C259.3 136.068 252.692 140.289 245.445 143.069C237.036 146.221 227.94 147.085 219.088 145.574C217.858 145.362 216.637 145.106 215.426 144.805C214.691 144.624 214.377 145.758 215.113 145.939C224.325 148.223 233.986 147.945 243.051 145.136C250.602 142.707 257.569 138.743 263.515 133.494C269.535 128.231 274.514 121.884 278.192 114.783C282.216 107.01 284.564 98.4774 285.084 89.7389C285.598 80.8715 284.111 71.8462 280.276 63.8024C279.812 62.8277 279.313 61.8704 278.781 60.9306C278.699 60.8015 278.571 60.7092 278.422 60.673C278.274 60.6369 278.118 60.6597 277.986 60.7367C277.854 60.8137 277.757 60.9389 277.716 61.0859C277.675 61.2328 277.692 61.39 277.765 61.5244H277.765Z" fill="white"/>
<path d="M215.329 19.8518C220.109 28.6625 223.833 38.0057 226.426 47.6883C231.616 67.0809 232.398 87.3897 228.713 107.124C226.874 116.983 223.874 126.591 219.777 135.745C215.691 144.823 209.808 154.387 199.76 157.565C198.626 157.922 197.464 158.182 196.285 158.342C195.539 158.444 195.857 159.578 196.598 159.476C206.992 158.05 214.215 149.415 218.744 140.612C223.431 131.504 226.768 121.614 228.988 111.628C233.386 91.7036 233.228 71.043 228.525 51.1881C226.188 41.2971 222.697 31.7152 218.121 22.6402C217.546 21.5038 216.954 20.3764 216.345 19.258C215.983 18.5927 214.967 19.1859 215.329 19.8518V19.8518Z" fill="white"/>
<path d="M166.134 18.1406H95.7027C94.2732 18.1425 92.9027 18.7112 91.8919 19.722C90.8811 20.7328 90.3124 22.1033 90.3105 23.5328V58.8231H101.15C101.943 58.821 102.723 59.0212 103.417 59.4048C104.11 59.7884 104.695 60.3427 105.115 61.0153L108.871 66.9957L112.464 72.7094L113.138 73.7839L117.248 80.3212L117.295 80.3957H171.527V23.5328C171.525 22.1033 170.956 20.7328 169.945 19.722C168.934 18.7112 167.564 18.1425 166.134 18.1406Z" fill="#CCCCCC"/>
<path d="M138.217 28.9287H103.318C102.393 28.9287 101.506 29.2962 100.852 29.9504C100.198 30.6046 99.8301 31.4918 99.8301 32.417C99.8301 33.3421 100.198 34.2294 100.852 34.8835C101.506 35.5377 102.393 35.9052 103.318 35.9052H138.217C139.142 35.9052 140.029 35.5377 140.683 34.8835C141.337 34.2294 141.705 33.3421 141.705 32.417C141.705 31.4918 141.337 30.6046 140.683 29.9504C140.029 29.2962 139.142 28.9287 138.217 28.9287Z" fill="white"/>
<path d="M157.569 46.0586H103.636C102.626 46.0586 101.658 46.4598 100.943 47.1739C100.229 47.888 99.8281 48.8565 99.8281 49.8664C99.8281 50.8764 100.229 51.8449 100.943 52.559C101.658 53.2731 102.626 53.6743 103.636 53.6743H157.569C158.579 53.6743 159.548 53.2731 160.262 52.559C160.976 51.8449 161.377 50.8764 161.377 49.8664C161.377 48.8565 160.976 47.888 160.262 47.1739C159.548 46.4598 158.579 46.0586 157.569 46.0586Z" fill="white"/>
<path d="M161.012 61.576C160.706 60.9213 160.219 60.3674 159.61 59.9792C159 59.591 158.292 59.3844 157.569 59.3838H103.636C103.553 59.3838 103.475 59.3877 103.393 59.3916C104.096 59.7761 104.689 60.3352 105.114 61.0152L108.871 66.9956H157.569C158.21 66.9958 158.84 66.8342 159.401 66.5259C159.962 66.2176 160.437 65.7725 160.78 65.232C161.124 64.6914 161.325 64.0729 161.366 63.4338C161.406 62.7947 161.285 62.1556 161.012 61.576Z" fill="white"/>
<path d="M161.338 76.0036C161.213 75.0918 160.763 74.2558 160.071 73.6502C159.378 73.0446 158.489 72.7104 157.569 72.7095H112.463L113.137 73.784L117.247 80.3213H157.569C158.361 80.3229 159.134 80.0745 159.777 79.6114C160.27 79.2597 160.673 78.7949 160.951 78.256C161.228 77.7171 161.373 77.1196 161.373 76.5134C161.373 76.3428 161.361 76.1725 161.338 76.0036Z" fill="white"/>
<path d="M204.388 48.5329L198.898 46.3878L171.525 35.7054L138.776 22.925C137.443 22.4077 135.959 22.44 134.65 23.0149C133.341 23.5897 132.313 24.6602 131.792 25.9917L130.647 28.9289L127.921 35.9054L123.96 46.0584L120.988 53.6741L118.76 59.3839L115.788 66.9957L113.556 72.7095L113.494 72.8742L113.137 73.784L117.247 80.3213L117.294 80.3958H193.415C194.114 80.3951 194.804 80.5513 195.435 80.8526C196.065 81.1539 196.62 81.5928 197.059 82.137L197.38 81.3213L201.31 71.2585L207.451 55.5212C207.969 54.1882 207.938 52.704 207.364 51.394C206.79 50.084 205.72 49.0551 204.388 48.5329Z" fill="#44BCC5"/>
<path d="M174.459 48.4312L171.526 47.2861L141.949 35.7448C141.087 35.4111 140.127 35.432 139.28 35.803C138.433 36.174 137.767 36.865 137.428 37.7252C137.093 38.5881 137.115 39.5483 137.486 40.3957C137.858 41.243 138.551 41.9086 139.412 42.2468L149.181 46.0586L161.263 50.7723L171.526 54.7802L171.922 54.9331C172.784 55.2677 173.743 55.2467 174.589 54.8746C175.436 54.5026 176.1 53.8099 176.436 52.9486C176.772 52.0874 176.753 51.128 176.382 50.281C176.011 49.4341 175.32 48.7688 174.459 48.4312Z" fill="white"/>
<path d="M186.256 71.4273L171.526 65.6783L161.013 61.5763L155.397 59.3841L140.769 53.6743L136.016 51.8194C135.13 51.4732 134.146 51.4716 133.258 51.8149C132.37 52.1583 131.643 52.8216 131.22 53.6743C131.173 53.7723 131.126 53.8743 131.087 53.9802C130.905 54.4457 130.817 54.9425 130.827 55.4422C130.837 55.9419 130.946 56.4347 131.146 56.8925C131.347 57.3502 131.636 57.764 131.996 58.1101C132.357 58.4562 132.782 58.7279 133.248 58.9096L134.463 59.3841L153.962 66.9959L171.526 73.8508L183.487 78.5214C183.927 78.6933 184.395 78.7811 184.868 78.7803C185.756 78.7818 186.616 78.4728 187.301 77.9066C187.985 77.3405 188.45 76.5529 188.615 75.6802C188.779 74.8074 188.634 73.9046 188.203 73.1279C187.772 72.3512 187.083 71.7497 186.256 71.4273H186.256Z" fill="white"/>
<path d="M171.526 79.98L170.58 79.6113L161.337 76.0035L152.894 72.7093L138.251 66.9956L131.169 64.2309C130.703 64.0486 130.205 63.9599 129.705 63.97C129.205 63.9801 128.711 64.0887 128.253 64.2895C127.795 64.4904 127.381 64.7797 127.034 65.1407C126.688 65.5018 126.416 65.9276 126.234 66.3938C126.053 66.86 125.965 67.3575 125.975 67.8577C125.986 68.3579 126.095 68.8512 126.297 69.3092C126.498 69.7672 126.788 70.1809 127.15 70.5268C127.511 70.8727 127.937 71.144 128.404 71.325L131.949 72.7094L149.635 79.6114L151.455 80.3212L151.643 80.3957H172.588L171.526 79.98Z" fill="white"/>
<path d="M135.749 80.3212L133.93 79.6114L126.326 76.6427C125.794 76.4346 125.223 76.3488 124.654 76.3915C124.085 76.4343 123.533 76.6045 123.039 76.8897C122.545 77.1748 122.121 77.5675 121.8 78.0386C121.478 78.5098 121.266 79.0473 121.18 79.6114C121.143 79.846 121.128 80.0837 121.137 80.3212C121.137 80.3461 121.138 80.371 121.141 80.3957H135.941L135.749 80.3212Z" fill="white"/>
<path d="M151.455 80.3215L149.635 79.6117H121.18C121.142 79.8463 121.128 80.0841 121.137 80.3215H117.247L117.294 80.396H151.643L151.455 80.3215ZM151.455 80.3215H117.247L117.294 80.396H151.643L151.455 80.3215ZM151.455 80.3215H117.247L117.294 80.396H151.643L151.455 80.3215ZM151.643 80.396L151.455 80.3215H117.247L117.294 80.396H151.643ZM83.0116 158.926C81.7703 158.924 80.5805 158.43 79.7028 157.552C78.8251 156.674 78.3311 155.485 78.3292 154.243V63.5097C78.3303 62.2678 78.8238 61.077 79.7016 60.1985C80.5794 59.32 81.7697 58.8255 83.0116 58.8234H90.3096V58.0391H83.0116C81.5619 58.0418 80.1724 58.6192 79.1477 59.6446C78.123 60.6701 77.5466 62.06 77.5449 63.5097V154.243C77.5462 155.292 77.8488 156.318 78.4169 157.2C78.9849 158.082 79.7943 158.781 80.7488 159.216H149.839C149.777 159.122 149.714 159.024 149.651 158.926H83.0116ZM197.381 81.3215C196.871 80.7811 196.257 80.3507 195.575 80.0566C194.893 79.7626 194.158 79.6111 193.416 79.6117H117.729L113.494 72.8744L113.392 72.7097L109.8 66.996L105.776 60.5959C105.283 59.8141 104.6 59.1697 103.791 58.7227C102.982 58.2756 102.073 58.0405 101.149 58.0391H83.0116C81.5619 58.0418 80.1724 58.6192 79.1477 59.6446C78.123 60.6701 77.5466 62.06 77.5449 63.5097V154.243C77.5462 155.292 77.8488 156.318 78.4169 157.2C78.9849 158.082 79.7943 158.781 80.7488 159.216C81.4584 159.543 82.2304 159.711 83.0116 159.71H193.416C194.198 159.711 194.972 159.543 195.683 159.216C196.637 158.781 197.447 158.082 198.015 157.2C198.583 156.318 198.885 155.292 198.887 154.243V85.0823C198.888 83.6816 198.348 82.3344 197.381 81.3215ZM198.102 154.243C198.1 155.485 197.606 156.676 196.727 157.553C195.848 158.431 194.658 158.925 193.416 158.926H83.0116C81.7703 158.924 80.5805 158.43 79.7028 157.552C78.825 156.674 78.3311 155.485 78.3292 154.243V63.5097C78.3303 62.2678 78.8238 61.077 79.7016 60.1985C80.5794 59.32 81.7697 58.8255 83.0116 58.8234H101.149C101.942 58.8212 102.722 59.0214 103.416 59.405C104.109 59.7887 104.694 60.343 105.114 61.0155L108.87 66.996L112.463 72.7097L113.137 73.7842L117.247 80.3215L117.294 80.396H193.416C194.658 80.3971 195.85 80.8911 196.728 81.7697C197.607 82.6484 198.101 83.8397 198.102 85.0823V154.243ZM151.455 80.3215H117.247L117.294 80.396H151.643L151.455 80.3215ZM151.455 80.3215H117.247L117.294 80.396H151.643L151.455 80.3215ZM151.455 80.3215H117.247L117.294 80.396H151.643L151.455 80.3215ZM151.455 80.3215L149.635 79.6117H117.729L113.494 72.8744L113.137 73.7842L117.247 80.3215L117.294 80.396H151.643L151.455 80.3215Z" fill="#3F3D56"/>
<path d="M61.5408 112.851L59.2945 117.548L40.1113 111.119L43.4262 104.188L61.5408 112.851Z" fill="#FFB8B8"/>
<path d="M56.1401 120.697L60.6807 111.204L66.3833 113.931L59.3238 128.691L58.8877 128.482C57.4909 127.814 56.4167 126.619 55.9014 125.159C55.3862 123.699 55.472 122.094 56.1401 120.697Z" fill="#2F2E41"/>
<path d="M66.0626 154.791L60.8598 154.615L60.6406 134.362L66.7399 134.722L66.0626 154.791Z" fill="#FFB8B8"/>
<path d="M56.7097 152.987L67.2269 153.342L67.0137 159.66L50.6618 159.108L50.6781 158.625C50.7303 157.077 51.3951 155.614 52.5263 154.557C53.6574 153.499 55.1622 152.935 56.7097 152.987Z" fill="#2F2E41"/>
<path d="M74.441 70.0311C74.441 70.0311 58.5175 65.9971 51.2988 71.9419L47.2648 83.6192L31.1289 106.549L54.4835 120.562L58.7298 109.946L48.5387 104.851L60.8529 94.2349L58.7298 150.286L66.7977 151.56C66.7977 151.56 84.6321 82.3453 74.441 70.0311Z" fill="#2F2E41"/>
<path d="M50.2832 73.6689L50.4773 73.3239C52.5232 69.6868 52.1916 63.764 51.5533 59.436C51.0187 55.8109 51.0348 49.4224 51.1424 44.7013C51.169 43.1078 51.7373 41.5708 52.7538 40.3433C53.7704 39.1158 55.1745 38.271 56.7352 37.9479C61.5793 36.9398 67.5263 36.7262 70.6401 36.6885L70.6427 36.9008L70.6401 36.6885C71.4861 36.6851 72.2998 37.0135 72.9065 37.6031C73.5132 38.1928 73.8646 38.9968 73.8854 39.8425C73.9801 44.9265 73.9507 54.1974 72.689 59.1714C70.8165 66.5539 73.7446 71.5707 73.7744 71.6204L73.9511 71.9157L50.2832 73.6689Z" fill="#44BCC5"/>
<path d="M42.091 94.0289C42.6094 93.7807 43.067 93.4218 43.4317 92.9776C43.7963 92.5334 44.0592 92.0146 44.2016 91.4578C44.3441 90.901 44.3628 90.3197 44.2563 89.755C44.1498 89.1902 43.9208 88.6556 43.5854 88.1889L52.572 49.4365H45.7779L37.8468 87.4251C37.1001 88.0406 36.6051 88.9085 36.4557 89.8645C36.3062 90.8205 36.5126 91.7982 37.0357 92.6122C37.5589 93.4262 38.3625 94.02 39.2942 94.2811C40.2259 94.5422 41.2211 94.4525 42.091 94.0289Z" fill="#FFB8B8"/>
<path d="M96.7343 55.8832L81.7372 41.6968L77.6839 47.3714L87.8171 56.2886L74.528 66.8417C74.432 66.8352 74.3364 66.8271 74.2386 66.8271C73.4208 66.8263 72.6202 67.0611 71.9324 67.5034C71.2446 67.9458 70.6988 68.5769 70.3603 69.3213C70.0218 70.0657 69.9049 70.8919 70.0236 71.701C70.1424 72.5101 70.4917 73.2678 71.0298 73.8836C71.5679 74.4994 72.272 74.9471 73.0579 75.1731C73.8438 75.3992 74.6782 75.394 75.4613 75.1583C76.2443 74.9226 76.9429 74.4663 77.4734 73.8439C78.0039 73.2216 78.3438 72.4596 78.4526 71.6491L78.4946 71.691L96.7343 55.8832Z" fill="#FFB8B8"/>
<path d="M55.7813 38.446C55.7813 38.446 46.4161 36.9099 45.5669 44.1286C44.7176 51.3473 44.293 51.3473 44.293 51.3473C44.293 51.3473 51.087 50.0734 52.7856 51.7719C54.4841 53.4704 55.7813 38.446 55.7813 38.446Z" fill="#44BCC5"/>
<path d="M69.7695 37.3346C69.7695 37.3346 77.4128 36.0607 80.8099 39.4577C84.2069 42.8547 85.9054 43.704 85.9054 43.704C85.9054 43.704 78.2621 47.9503 81.2345 51.7719C81.2345 51.7719 73.1666 47.9503 71.8927 49.2242C70.6188 50.4981 69.7695 37.3346 69.7695 37.3346Z" fill="#44BCC5"/>
<path d="M63.066 12.6817C60.655 10.7563 60.0215 7.04005 61.4203 4.28985C62.8192 1.53965 65.9818 -0.11726 69.0649 0.00647804C72.1479 0.130216 75.053 1.90024 76.8391 4.41623C79.3481 7.95051 79.8746 12.8627 83.2108 15.6296C86.2241 18.1287 90.5409 18.0571 94.4506 17.8583C95.7685 17.7913 97.1291 17.7136 98.3117 17.1281C99.4943 16.5425 100.461 15.3075 100.308 13.9967C101.29 15.5516 100.72 17.7316 99.4027 19.0146C98.0849 20.2975 96.2086 20.8349 94.3819 21.049C91.1594 21.3877 87.9042 20.8811 84.9369 19.5792C81.9696 18.2773 79.3926 16.225 77.4598 13.6243C76.0994 11.7476 75.0496 9.56233 73.1829 8.18834C71.3162 6.81435 68.2038 6.7187 67.0578 8.73343C66.491 9.72991 66.5467 10.9798 66.0255 12.0009C65.5043 13.0219 63.8117 13.5724 63.3099 12.5418" fill="#2F2E41"/>
<path d="M62.6983 33.1594C69.1958 33.1594 74.4631 27.8921 74.4631 21.3946C74.4631 14.8971 69.1958 9.62988 62.6983 9.62988C56.2009 9.62988 50.9336 14.8971 50.9336 21.3946C50.9336 27.8921 56.2009 33.1594 62.6983 33.1594Z" fill="#2F2E41"/>
<path d="M62.626 34.08C67.9455 34.08 72.2578 29.7677 72.2578 24.4482C72.2578 19.1287 67.9455 14.8164 62.626 14.8164C57.3065 14.8164 52.9941 19.1287 52.9941 24.4482C52.9941 29.7677 57.3065 34.08 62.626 34.08Z" fill="#FFB8B8"/>
<path d="M53.8438 17.3745C55.1528 17.6608 54.7244 19.8567 55.7588 20.7085C56.6919 21.4768 58.0357 20.6867 59.21 20.4006C60.6927 20.0395 62.2446 20.5685 63.6135 21.243C64.9824 21.9174 66.3023 22.7544 67.7956 23.0686C69.289 23.3828 71.0594 23.0287 71.8965 21.7528C72.6969 20.5328 72.4023 18.8876 71.7761 17.5697C70.9974 15.9311 69.7755 14.5433 68.2487 13.5634C66.7218 12.5836 64.9511 12.051 63.1371 12.0258C61.323 12.0007 59.5382 12.4841 57.9848 13.4212C56.4314 14.3583 55.1715 15.7118 54.3477 17.3282" fill="#2F2E41"/>
<path d="M280.785 159.608C280.785 159.712 280.744 159.811 280.67 159.885C280.597 159.958 280.497 160 280.393 160H0.392158C0.288151 160 0.188404 159.959 0.11486 159.885C0.0413163 159.812 0 159.712 0 159.608C0 159.504 0.0413163 159.404 0.11486 159.331C0.188404 159.257 0.288151 159.216 0.392158 159.216H280.393C280.497 159.216 280.597 159.258 280.67 159.331C280.744 159.405 280.785 159.504 280.785 159.608Z" fill="#3F3D56"/>
</g>
<defs>
<clipPath id="clip0_5151_18444">
<rect width="304.707" height="160" fill="white"/>
</clipPath>
</defs>
</svg>
