<svg width="223" height="160" viewBox="0 0 223 160" fill="none" xmlns="http://www.w3.org/2000/svg">
<g clip-path="url(#clip0_1664_9469)">
<path d="M37.2795 153.584C37.1015 153.593 36.9253 153.546 36.7747 153.45C36.6242 153.355 36.5066 153.216 36.4378 153.051C36.3691 152.887 36.3525 152.706 36.3904 152.531C36.4283 152.357 36.5188 152.199 36.6497 152.078L36.7092 151.841C36.7014 151.822 36.6935 151.803 36.6856 151.784C36.5062 151.361 36.2058 151 35.8218 150.746C35.4379 150.493 34.9877 150.359 34.5278 150.361C34.0678 150.362 33.6186 150.5 33.2366 150.756C32.8546 151.012 32.5568 151.376 32.3806 151.8C31.6765 153.496 30.7801 155.195 30.5594 156.988C30.4621 157.781 30.5032 158.584 30.6806 159.362C29.0268 155.755 28.1681 151.834 28.1626 147.866C28.1622 146.87 28.2176 145.875 28.3283 144.885C28.4198 144.074 28.5468 143.269 28.7092 142.469C29.5956 138.129 31.4986 134.062 34.2621 130.601C35.5996 129.871 36.6813 128.749 37.3613 127.386C37.6077 126.896 37.7818 126.372 37.8783 125.832C37.7274 125.852 37.3094 123.554 37.4232 123.413C37.2129 123.094 36.8366 122.936 36.607 122.624C35.4649 121.076 33.8913 121.346 33.0699 123.45C31.3151 124.336 31.2981 125.805 32.3749 127.217C33.0599 128.116 33.154 129.332 33.7551 130.294C33.6932 130.374 33.6289 130.45 33.5671 130.529C32.4367 131.983 31.4515 133.544 30.6256 135.189C30.8264 133.346 30.5867 131.481 29.9261 129.748C29.2567 128.133 28.0018 126.773 26.8968 125.376C25.5695 123.699 22.8477 124.431 22.6138 126.557C22.6116 126.578 22.6094 126.598 22.6072 126.619C22.7713 126.711 22.932 126.81 23.0892 126.914C23.2867 127.046 23.4397 127.234 23.5282 127.455C23.6168 127.675 23.6366 127.917 23.5853 128.149C23.5339 128.381 23.4137 128.592 23.2403 128.754C23.067 128.917 22.8487 129.023 22.6139 129.059L22.5899 129.063C22.6484 129.654 22.7517 130.24 22.8991 130.816C21.4814 136.299 24.542 138.295 28.912 138.385C29.0085 138.435 29.1025 138.484 29.199 138.531C28.3692 140.883 27.8487 143.332 27.6506 145.818C27.5384 147.284 27.545 148.758 27.6704 150.223L27.6629 150.171C27.3463 148.542 26.477 147.071 25.2018 146.008C23.3079 144.453 20.6321 143.88 18.5889 142.629C18.3717 142.49 18.1192 142.415 17.8612 142.415C17.6031 142.414 17.3503 142.487 17.1325 142.625C16.9146 142.764 16.7409 142.962 16.6318 143.195C16.5227 143.429 16.4827 143.689 16.5166 143.945C16.5193 143.963 16.5221 143.982 16.525 144C16.8296 144.124 17.1261 144.267 17.4129 144.428C17.5771 144.52 17.7377 144.619 17.8949 144.723C18.0924 144.855 18.2454 145.043 18.3339 145.263C18.4225 145.484 18.4423 145.726 18.3909 145.958C18.3396 146.19 18.2194 146.401 18.046 146.563C17.8727 146.725 17.6544 146.832 17.4197 146.868L17.3956 146.872C17.3783 146.874 17.3634 146.876 17.3462 146.879C17.8666 148.122 18.597 149.265 19.5055 150.26C20.3919 155.046 24.199 155.5 28.2714 154.106H28.2739C28.7207 156.048 29.3681 157.938 30.2056 159.746H37.1066C37.1313 159.669 37.1536 159.59 37.1758 159.513C36.5371 159.554 35.8958 159.515 35.2663 159.4C35.7783 158.771 36.2903 158.138 36.8023 157.51C36.8138 157.498 36.8245 157.486 36.8345 157.473C37.0942 157.151 37.3564 156.832 37.6161 156.511L37.6162 156.51C37.6301 155.525 37.517 154.541 37.2797 153.584L37.2795 153.584H37.2795Z" fill="#F2F2F2"/>
<path d="M45.2168 159.592H56.3527C58.2573 153.179 56.3629 138.023 58.8733 131.829C63.6896 119.952 69.8426 107.419 81.3269 101.62C86.2303 99.1436 91.5768 98.1764 97.0368 98.229C104.579 98.3006 112.334 100.325 119.434 103.009C122.338 104.104 125.215 105.308 128.082 106.539C138.881 111.179 149.562 116.233 161.175 117.599C175.87 119.327 193.148 112.752 197.162 98.5903C200.225 87.7479 194.708 76.4915 188.922 66.8082C183.137 57.125 176.669 46.7643 177.726 35.553C177.73 35.5154 177.733 35.474 177.741 35.4364C178.139 31.4095 180.543 28.5155 183.901 26.6602H169.278C169.085 37.1187 175.136 46.3503 180.581 55.4653C186.366 65.1448 191.883 76.405 188.82 87.2474C184.806 101.405 151.572 84.8093 136.877 83.0781C132.727 82.5926 139.319 84.32 135.362 83.0781C129.156 81.1324 128.468 98.978 122.429 96.3586C118.669 94.7253 114.905 93.1033 111.092 91.6619C109.513 91.0635 107.9 90.5027 106.268 89.9834C106.267 89.9833 106.265 89.9829 106.264 89.9823C106.263 89.9816 106.262 89.9807 106.261 89.9796C95.3026 86.5098 83.3185 85.1587 73.1936 90.1753C73.1255 90.2092 73.0535 90.2431 72.9853 90.2769C61.5011 96.0726 55.3481 108.605 50.5318 120.482C46.5522 130.301 47.1782 149.235 45.2168 159.592L45.2168 159.592Z" fill="#F2F2F2"/>
<path d="M111.228 159.264C56.8802 160.415 55.6885 136.609 55.6885 108.293C55.6885 79.9771 80.4714 57.8262 111.182 57.8262C141.893 57.8262 166.284 79.9689 166.284 108.284C166.284 136.599 141.939 159.264 111.228 159.264Z" fill="white"/>
<path d="M110.918 159.573C56.5706 160.724 55.3789 136.918 55.3789 108.602C55.3789 80.2858 80.3641 57.25 111.075 57.25C141.786 57.25 166.771 80.2865 166.771 108.602C166.771 136.917 141.629 159.573 110.918 159.573ZM111.075 58.663C81.209 58.663 57.4144 81.0694 56.9115 108.602C56.4436 134.21 85.9498 166.166 111.075 158.541C124.549 144.859 162.643 130.123 165.239 108.602C168.539 81.2341 140.941 58.663 111.075 58.663L111.075 58.663Z" fill="#3F3D56"/>
<path d="M1.63074e-06 159.632C-0.000142645 159.68 0.00928777 159.728 0.0277504 159.773C0.046213 159.818 0.0733434 159.859 0.107581 159.893C0.141818 159.927 0.182487 159.954 0.227248 159.973C0.272008 159.991 0.319977 160.001 0.368395 160H221.792C221.89 160 221.984 159.962 222.053 159.893C222.122 159.823 222.161 159.73 222.161 159.632C222.161 159.534 222.122 159.441 222.053 159.372C221.984 159.302 221.89 159.264 221.792 159.264H0.368395C0.319977 159.264 0.272009 159.273 0.227249 159.291C0.182489 159.31 0.141821 159.337 0.107584 159.371C0.0733464 159.405 0.0462159 159.446 0.0277529 159.491C0.00928985 159.536 -0.000141412 159.584 1.63074e-06 159.632Z" fill="#CCCCCC"/>
<path d="M149.199 154.917H145.376L143.557 140.168L149.2 140.168L149.199 154.917Z" fill="#A0616A"/>
<path d="M149.334 158.906L137.575 158.906V158.757C137.575 157.543 138.057 156.379 138.916 155.521C139.774 154.662 140.938 154.18 142.152 154.18H142.152L144.3 152.551L148.307 154.18L149.334 154.181L149.334 158.906V158.906Z" fill="#2F2E41"/>
<path d="M143.389 120.729C139.023 116.488 134.005 112.976 128.526 110.324L125.732 113.479L127.512 109.845C120.179 106.496 112.219 104.743 104.158 104.7C96.0973 104.657 88.1192 106.327 80.7516 109.598L82.2034 112.751L79.9741 109.948C74.2191 112.625 68.9524 116.246 64.3923 120.661C63.9235 121.098 63.6339 121.694 63.5797 122.332C63.5563 122.679 63.6077 123.027 63.7303 123.352C63.853 123.677 64.0441 123.973 64.2907 124.218C64.9933 124.55 65.9945 125.314 67.4821 127.409C67.9383 127.859 68.5521 128.113 69.1929 128.117C69.8336 128.121 70.4505 127.874 70.9123 127.43C79.7468 118.878 91.5605 114.097 103.856 114.097C116.152 114.097 127.965 118.878 136.8 127.43C137.262 127.874 137.879 128.121 138.519 128.117C139.16 128.113 139.774 127.859 140.23 127.409C141.727 126.062 142.077 124.159 143.363 124.276C143.816 123.838 144.09 123.248 144.134 122.62C144.153 122.269 144.097 121.919 143.968 121.593C143.84 121.266 143.642 120.972 143.389 120.729Z" fill="#44BCC5"/>
<path d="M114.236 125.319L110.413 125.319L108.594 110.57L114.237 110.571L114.236 125.319Z" fill="#A0616A"/>
<path d="M114.372 129.308L102.613 129.308V129.159C102.613 127.945 103.096 126.781 103.954 125.923C104.812 125.065 105.976 124.583 107.19 124.583H107.19L109.338 122.953L113.345 124.583L114.372 124.583L114.372 129.308V129.308Z" fill="#2F2E41"/>
<path d="M153.571 71.0176L126.435 73.8527L119.768 80.4407L109.162 83.9039C107.826 84.3398 106.656 85.1731 105.807 86.2923C104.958 87.4115 104.471 88.7633 104.412 90.1667C104.136 96.6352 103.59 107.375 103.014 107.262C102.191 107.101 103.837 111.126 104.99 110.892C106.143 110.658 107.342 113.282 106.545 113.749C105.748 114.215 107.076 118.207 107.076 118.207L115.382 116.869C116.421 109.026 120.219 100.76 115.743 94.99C123.323 92.5304 130 90.4736 134.91 89.206L137.565 88.1042L143.078 146.683L150.875 146.811C153.026 135.744 154.107 125.783 152.425 118.678C152.425 118.678 152.667 97.3316 153.589 97.565C154.511 97.7984 153.729 95.0176 153.729 95.0176C153.729 95.0176 152.922 92.6492 153.914 91.6667C154.906 90.6842 154.287 84.9056 154.287 84.9056C155.926 79.4369 155.432 74.9215 153.571 71.0176V71.0176Z" fill="#2F2E41"/>
<path d="M156.78 59.0651C157.048 57.8598 157.317 56.6544 157.586 55.449C158.341 52.0734 159.094 48.6994 159.847 45.3269C160.835 40.9082 161.827 36.3356 160.977 31.889C160.85 31.2202 160.671 30.5622 160.443 29.9207C159.171 26.2807 156.361 23.0911 152.634 22.4193L152.025 20.1506L143.709 19.127L142.135 21.2975C138.748 21.0266 136.737 24.3997 134.4 27.1794L133.471 28.1081C132.795 28.9545 132.656 32.1345 132.233 33.061C130.354 37.1811 132.944 33.1771 132.852 37.7044C132.758 42.3958 131.835 46.9482 131.741 51.6394C131.731 52.1427 130.647 52.5265 130.461 53.409C130.36 53.8853 131.2 54.7689 131.072 55.3014C130.964 55.7559 131.506 57.5826 131.39 58.0523C130.85 60.2317 129.627 61.0898 129.574 62.1644C129.549 62.5779 129.488 62.9884 129.39 63.391C129.323 63.6766 128.385 63.3343 128.294 63.6244C128.141 64.1118 128.816 65.2341 128.631 65.722C128.273 66.6661 128.513 68.3337 128.294 69.1964C127.374 72.8186 127.727 71.3812 125.732 74.5418C130.838 76.0854 133.044 81.2548 138.296 82.1852C138.533 81.4201 138.769 80.653 139.004 79.8838C139.7 79.9286 140.4 79.9703 141.101 80.0087C141.14 80.6765 141.18 81.3445 141.219 82.0084C146.543 82.3516 151.883 82.3807 157.21 82.0955C157.032 81.5601 156.889 81.0134 156.783 80.4591C156.491 78.9177 157.12 77.2459 157.187 75.7202C157.234 74.5899 156.697 73.6295 156.712 72.4121C156.716 72.1869 157.981 71.9973 157.977 71.7679C157.957 69.7443 156.807 67.0369 157.187 65.0489C157.582 63.0056 156.329 61.0969 156.78 59.0657V59.0651L156.78 59.0651Z" fill="#3F3D56"/>
<path d="M117.881 10.1856C117.176 10.1864 116.5 10.4668 116.001 10.9654C115.503 11.4639 115.222 12.1398 115.222 12.8449V28.8687C115.222 29.5738 115.503 30.2497 116.001 30.7483C116.5 31.2468 117.176 31.5272 117.881 31.5281H122.838C123.543 31.5272 124.219 31.2468 124.718 30.7483C125.216 30.2497 125.497 29.5738 125.498 28.8687C126.288 20.8172 125.997 16.4719 125.498 12.8449C125.497 12.1398 125.216 11.4639 124.718 10.9654C124.219 10.4668 123.543 10.1864 122.838 10.1855H117.881V10.1856Z" fill="#44BCC5"/>
<path d="M117.262 10.1855C116.557 10.1864 115.881 10.4668 115.383 10.9653C114.884 11.4639 114.604 12.1398 114.603 12.8448C114.318 19.1436 114.12 25.1507 114.603 28.8687C114.604 29.5737 114.884 30.2497 115.383 30.7483C115.881 31.2468 116.557 31.5273 117.262 31.5281H122.22C122.925 31.5272 123.601 31.2468 124.099 30.7483C124.598 30.2497 124.878 29.5738 124.879 28.8687V12.8449C124.878 12.1398 124.598 11.4639 124.099 10.9654C123.601 10.4668 122.925 10.1864 122.22 10.1856L117.262 10.1855Z" fill="#3F3D56"/>
<path d="M130.024 33.5071C130.024 33.5071 134.713 33.317 132.326 35.3415C130.773 36.6589 127.276 45.8303 123.643 46.9398C123.215 47.0702 122.765 47.1104 122.321 47.0577C121.877 47.005 121.449 46.8607 121.063 46.6338C120.678 46.407 120.344 46.1025 120.082 45.7398C119.82 45.3771 119.637 44.964 119.543 44.5266L116.25 29.1759L120.552 28.5215L123.174 40.671L130.024 33.5071V33.5071Z" fill="#A0616A"/>
<path d="M118.639 30.2964C120.32 30.2964 121.682 28.9341 121.682 27.2537C121.682 25.5732 120.32 24.2109 118.639 24.2109C116.959 24.2109 115.597 25.5732 115.597 27.2537C115.597 28.9341 116.959 30.2964 118.639 30.2964Z" fill="#A0616A"/>
<path d="M136.385 25.1181C139.172 27.2113 139.993 34.0755 138.241 37.0893C134.893 42.8504 128.292 47.2859 128.011 46.6699C127.625 45.8264 126.953 46.9591 126.976 47.3299C126.999 47.7007 125.727 47.5902 125.876 47.9826C126.024 48.375 125.02 48.4602 124.584 48.6877C124.584 48.6877 120.595 48.7552 119.337 46.9349C118.079 45.1147 117.91 42.5993 117.91 42.5993L116.348 40.7612L124.631 35.9193L123.948 39.1874L128.08 34.3762L128.954 32.4459L130.349 31.7335L130.812 30.279L132.098 29.6974L137.186 23.7734L136.385 25.1181L136.385 25.1181Z" fill="#3F3D56"/>
<path d="M159.271 81.5079C159.619 81.2785 159.912 80.9758 160.13 80.6209C160.348 80.266 160.486 79.8676 160.533 79.4538C160.58 79.0401 160.537 78.6209 160.404 78.226C160.272 77.831 160.055 77.4698 159.768 77.1678L160.354 51.1387L155.21 51.9388L155.573 77.1854C155.098 77.7009 154.828 78.3728 154.815 79.0739C154.802 79.775 155.046 80.4565 155.502 80.9893C155.958 81.5221 156.594 81.8692 157.288 81.9648C157.983 82.0603 158.689 81.8978 159.271 81.5079Z" fill="#A0616A"/>
<path d="M159.495 28.9512C159.495 28.9512 159.154 29.209 160.903 31.8748C161.25 32.4035 161.485 34.5352 161.65 37.3169C161.704 38.2232 162.22 38.8598 162.26 39.8711C162.294 40.7293 161.853 41.9521 161.88 42.8422C161.893 43.3169 162.247 43.7299 162.26 44.2049C162.265 44.4029 161.928 44.6639 161.933 44.8612C161.938 45.074 161.943 45.2861 161.948 45.4975C162.068 50.7845 162.094 55.5595 162.213 55.4789C162.468 55.3069 161.836 56.1958 162.152 56.3442C162.468 56.4926 161.882 57.2289 162.033 57.6106C162.217 58.0756 161.988 58.5886 161.844 59.0553C161.426 60.4032 161.336 61.5605 160.973 62.2008C161.404 62.448 161.741 62.8315 161.93 63.291C162.118 63.7504 162.149 64.2596 162.017 64.7384L154.768 63.4279C153.884 62.0121 154.012 60.5262 154.614 60.2672L154.435 55.66L152.37 31.8245L158.421 29.1231L159.495 28.9512V28.9512Z" fill="#3F3D56"/>
<path d="M114.505 14.2949C114.401 14.2949 114.316 14.3445 114.316 14.4055V15.2898C114.316 15.3508 114.401 15.4004 114.505 15.4004C114.609 15.4004 114.694 15.3508 114.694 15.2898V14.4055C114.694 14.3445 114.609 14.2949 114.505 14.2949Z" fill="#3F3D56"/>
<path d="M114.505 16.6387C114.401 16.6387 114.316 16.6883 114.316 16.7492V18.4627C114.316 18.5237 114.401 18.5732 114.505 18.5732C114.609 18.5732 114.694 18.5237 114.694 18.4627V16.7492C114.694 16.6883 114.609 16.6387 114.505 16.6387Z" fill="#3F3D56"/>
<path d="M125.03 16.9492C124.974 16.9556 124.923 16.9834 124.888 17.0267C124.853 17.07 124.836 17.1254 124.841 17.181V20.7744C124.835 20.8025 124.836 20.8314 124.842 20.8592C124.849 20.8871 124.862 20.913 124.88 20.9352C124.898 20.9574 124.921 20.9753 124.947 20.9876C124.973 20.9999 125.001 21.0063 125.03 21.0063C125.058 21.0063 125.087 20.9999 125.112 20.9876C125.138 20.9753 125.161 20.9574 125.179 20.9352C125.197 20.913 125.21 20.8871 125.217 20.8592C125.224 20.8314 125.224 20.8025 125.218 20.7744V17.181C125.223 17.1254 125.206 17.07 125.171 17.0267C125.136 16.9834 125.085 16.9556 125.03 16.9492Z" fill="#3F3D56"/>
<path d="M114.196 19.3809C114.091 19.3809 114.007 19.4304 114.007 19.4914V21.2049C114.007 21.2659 114.091 21.3154 114.196 21.3154C114.3 21.3154 114.384 21.2659 114.384 21.2049V19.4914C114.384 19.4304 114.3 19.3809 114.196 19.3809Z" fill="#3F3D56"/>
<path d="M147.284 18.3236C151.576 18.3236 155.055 14.8443 155.055 10.5524C155.055 6.26053 151.576 2.78125 147.284 2.78125C142.992 2.78125 139.513 6.26053 139.513 10.5524C139.513 14.8443 142.992 18.3236 147.284 18.3236Z" fill="#A0616A"/>
<path d="M155.961 14.1224C155.355 15.3365 154.777 16.0959 153.728 16.7746C153.675 16.6198 153.632 16.4618 153.599 16.3014C153.488 16.5509 153.379 16.7999 153.264 17.05C152.601 17.4206 153.317 16.8489 152.231 17.2632L151.317 15.6951C151.067 14.9507 151.421 14.14 151.872 13.4959C152.324 12.8543 152.886 12.2662 153.13 11.5203C153.375 10.7745 153.158 9.78635 152.424 9.50874C151.702 9.2315 150.904 9.75745 150.136 9.66608C149.249 9.56154 148.646 8.63409 148.598 7.74183C148.55 6.84956 148.914 5.99284 149.27 5.17633C148.197 5.94563 144.871 7.32389 143.061 7.38974C143.012 6.82508 142.751 6.29989 142.331 5.91993C142.404 6.43401 142.279 6.95682 141.981 7.38179C140.208 7.2909 139.875 9.86518 138.96 8.93301C139.246 8.78927 138.193 5.59007 138.479 5.44633C138.259 4.84402 138.039 4.24347 137.82 3.64467C138.228 3.7473 138.638 3.852 139.048 3.95407C139.073 3.73512 139.14 3.52294 139.244 3.32866C139.536 3.16209 139.847 3.03084 140.17 2.93767C140.274 2.90985 140.381 2.88148 140.489 2.85837C140.649 2.82281 140.81 2.79647 140.973 2.77948C140.737 2.64285 140.499 2.50939 140.263 2.37015C140.235 2.35417 140.209 2.33762 140.181 2.32164C140.513 2.09359 140.86 1.88788 141.219 1.70589C142.733 0.913699 144.305 0.106492 146.012 0.00774912C147.121 -0.0628606 148.22 0.253586 149.122 0.903094C149.9 1.46161 150.841 1.74489 151.798 1.70809C152.263 1.70454 152.723 1.80701 153.143 2.00771C152.951 2.20141 152.741 2.37638 152.515 2.53029C153.008 2.54309 153.498 2.55647 153.991 2.57191C154.543 3.07446 155.009 3.6645 155.369 4.31836C157.096 7.26962 157.491 11.0649 155.961 14.1224H155.961Z" fill="#2F2E41"/>
<path d="M131.005 135.192C130.946 134.804 130.796 134.436 130.566 134.118C130.336 133.8 130.033 133.542 129.683 133.364C126.398 131.683 122.955 130.33 119.403 129.325L116.08 133.706L118.536 129.083C109.446 126.645 99.8918 126.509 90.7361 128.689L92.014 132.212L89.9264 128.891C85.8038 129.927 81.8121 131.428 78.0278 133.364C77.6794 133.543 77.378 133.801 77.1483 134.118C76.9186 134.435 76.7671 134.802 76.7061 135.189C76.6451 135.575 76.6764 135.971 76.7973 136.343C76.9183 136.715 77.1255 137.054 77.4021 137.331C78.8387 137.419 79.7874 138.754 80.7344 140.663C81.0972 141.021 81.5618 141.258 82.0646 141.342C82.5675 141.426 83.0839 141.352 83.5432 141.131C89.8892 138.113 96.8281 136.546 103.855 136.546C110.883 136.546 117.822 138.113 124.168 141.131C124.627 141.352 125.143 141.426 125.646 141.342C126.149 141.258 126.613 141.021 126.976 140.663C127.545 139.12 128.719 138.207 130.309 137.331C130.587 137.056 130.795 136.718 130.916 136.346C131.037 135.974 131.068 135.579 131.005 135.192Z" fill="#44BCC5"/>
<path d="M112.646 150.278C111.919 150.164 111.186 150.064 110.45 149.979L107.563 154.572L109.714 149.9C106.219 149.543 102.698 149.506 99.1962 149.79L101.398 154.572L98.4341 149.856C97.3028 149.963 96.1798 150.104 95.0651 150.278C94.6835 150.334 94.3255 150.497 94.0323 150.748C93.7391 150.999 93.5227 151.327 93.4078 151.696C93.2853 152.067 93.2686 152.465 93.3594 152.846C93.4502 153.226 93.645 153.574 93.922 153.85C95.114 155.017 96.4284 156.639 98.5884 158.516C98.7991 158.73 99.0537 158.895 99.3345 159C99.6154 159.106 99.9158 159.149 100.215 159.128C101.412 159.039 102.637 158.994 103.856 158.994H103.856C105.074 158.994 106.299 159.039 107.496 159.128C107.796 159.149 108.096 159.105 108.377 159C108.657 158.894 108.912 158.729 109.123 158.516C111.354 156.612 112.481 154.866 113.789 153.85C114.066 153.574 114.261 153.226 114.352 152.846C114.443 152.465 114.426 152.067 114.304 151.696C114.189 151.327 113.972 150.999 113.679 150.748C113.386 150.497 113.028 150.334 112.646 150.278Z" fill="#44BCC5"/>
</g>
<defs>
<clipPath id="clip0_1664_9469">
<rect width="222.161" height="160" fill="white"/>
</clipPath>
</defs>
</svg>
